<svg width="166" height="209" viewBox="0 0 166 209" fill="none" xmlns="http://www.w3.org/2000/svg">
<g filter="url(#filter0_d_1902_2)">
<rect x="4" width="158" height="188" rx="8" fill="#F5F5F5"/>
</g>
<path d="M57 34C57 29.5817 60.5817 26 65 26H149C153.418 26 157 29.5817 157 34V53C157 57.4183 153.418 61 149 61H65C60.5817 61 57 57.4183 57 53V34Z" fill="#87A2FF"/>
<circle cx="13" cy="15" r="5" fill="#87A2FF"/>
<path d="M23.216 18C23.0987 18 23 17.96 22.92 17.88C22.84 17.8 22.8 17.7013 22.8 17.584V12.168C22.8 12.0453 22.84 11.9467 22.92 11.872C23 11.792 23.0987 11.752 23.216 11.752H24.664C25.1227 11.752 25.5387 11.8293 25.912 11.984C26.2907 12.1333 26.6187 12.3493 26.896 12.632C27.1733 12.9093 27.3867 13.2373 27.536 13.616C27.6853 13.9947 27.76 14.4133 27.76 14.872C27.76 15.3307 27.6853 15.752 27.536 16.136C27.3867 16.5147 27.1733 16.8453 26.896 17.128C26.6187 17.4053 26.2907 17.6213 25.912 17.776C25.5387 17.9253 25.1227 18 24.664 18H23.216ZM23.632 17.264H24.664C25.112 17.264 25.5067 17.1627 25.848 16.96C26.1947 16.752 26.4667 16.4693 26.664 16.112C26.8613 15.7493 26.96 15.336 26.96 14.872C26.96 14.4027 26.8613 13.9893 26.664 13.632C26.4667 13.2747 26.1947 12.9947 25.848 12.792C25.5067 12.5893 25.112 12.488 24.664 12.488H23.632V17.264ZM31.0416 18.032C30.599 18.032 30.2043 17.9387 29.8576 17.752C29.5163 17.56 29.247 17.2987 29.0496 16.968C28.8576 16.632 28.7616 16.248 28.7616 15.816C28.7616 15.3787 28.8523 14.9947 29.0336 14.664C29.2203 14.328 29.4763 14.0667 29.8016 13.88C30.127 13.688 30.5003 13.592 30.9216 13.592C31.3376 13.592 31.695 13.6853 31.9936 13.872C32.2923 14.0533 32.519 14.3067 32.6736 14.632C32.8336 14.952 32.9136 15.3227 32.9136 15.744C32.9136 15.8453 32.879 15.9307 32.8096 16C32.7403 16.064 32.6523 16.096 32.5456 16.096H29.3216V15.456H32.5216L32.1936 15.68C32.1883 15.4133 32.135 15.176 32.0336 14.968C31.9323 14.7547 31.7883 14.5867 31.6016 14.464C31.415 14.3413 31.1883 14.28 30.9216 14.28C30.6176 14.28 30.3563 14.3467 30.1376 14.48C29.9243 14.6133 29.7616 14.7973 29.6496 15.032C29.5376 15.2613 29.4816 15.5227 29.4816 15.816C29.4816 16.1093 29.5483 16.3707 29.6816 16.6C29.815 16.8293 29.999 17.0107 30.2336 17.144C30.4683 17.2773 30.7376 17.344 31.0416 17.344C31.207 17.344 31.375 17.3147 31.5456 17.256C31.7216 17.192 31.863 17.12 31.9696 17.04C32.0496 16.9813 32.135 16.952 32.2256 16.952C32.3216 16.9467 32.4043 16.9733 32.4736 17.032C32.5643 17.112 32.6123 17.2 32.6176 17.296C32.623 17.392 32.5803 17.4747 32.4896 17.544C32.3083 17.688 32.0816 17.8053 31.8096 17.896C31.543 17.9867 31.287 18.032 31.0416 18.032ZM37.6504 18.008C37.533 18.008 37.4344 17.9707 37.3544 17.896C37.2797 17.816 37.2424 17.7173 37.2424 17.6V15.632C37.2424 15.328 37.1864 15.08 37.0744 14.888C36.9624 14.696 36.8104 14.5547 36.6184 14.464C36.4317 14.368 36.2157 14.32 35.9704 14.32C35.7464 14.32 35.5437 14.3653 35.3624 14.456C35.181 14.5467 35.037 14.6693 34.9304 14.824C34.8237 14.9733 34.7704 15.1467 34.7704 15.344H34.2664C34.2664 15.008 34.3464 14.7093 34.5064 14.448C34.6717 14.1813 34.8957 13.9707 35.1784 13.816C35.461 13.6613 35.7784 13.584 36.1304 13.584C36.4984 13.584 36.8264 13.664 37.1144 13.824C37.4077 13.9787 37.637 14.208 37.8024 14.512C37.973 14.816 38.0584 15.1893 38.0584 15.632V17.6C38.0584 17.7173 38.0184 17.816 37.9384 17.896C37.8637 17.9707 37.7677 18.008 37.6504 18.008ZM34.3624 18.008C34.245 18.008 34.1464 17.9707 34.0664 17.896C33.9917 17.816 33.9544 17.7173 33.9544 17.6V14.032C33.9544 13.9093 33.9917 13.8107 34.0664 13.736C34.1464 13.6613 34.245 13.624 34.3624 13.624C34.485 13.624 34.5837 13.6613 34.6584 13.736C34.733 13.8107 34.7704 13.9093 34.7704 14.032V17.6C34.7704 17.7173 34.733 17.816 34.6584 17.896C34.5837 17.9707 34.485 18.008 34.3624 18.008ZM40.9995 18C40.7328 18 40.4928 17.9333 40.2795 17.8C40.0662 17.6613 39.8982 17.4747 39.7755 17.24C39.6528 17.0053 39.5915 16.7413 39.5915 16.448V12.632C39.5915 12.5147 39.6288 12.4187 39.7035 12.344C39.7782 12.2693 39.8742 12.232 39.9915 12.232C40.1088 12.232 40.2048 12.2693 40.2795 12.344C40.3542 12.4187 40.3915 12.5147 40.3915 12.632V16.448C40.3915 16.6613 40.4502 16.84 40.5675 16.984C40.6848 17.128 40.8288 17.2 40.9995 17.2H41.2715C41.3675 17.2 41.4475 17.2373 41.5115 17.312C41.5808 17.3867 41.6155 17.4827 41.6155 17.6C41.6155 17.7173 41.5702 17.8133 41.4795 17.888C41.3942 17.9627 41.2822 18 41.1435 18H40.9995ZM39.2235 14.472C39.1115 14.472 39.0208 14.44 38.9515 14.376C38.8822 14.312 38.8475 14.232 38.8475 14.136C38.8475 14.0293 38.8822 13.944 38.9515 13.88C39.0208 13.816 39.1115 13.784 39.2235 13.784H41.0715C41.1835 13.784 41.2742 13.816 41.3435 13.88C41.4128 13.944 41.4475 14.0293 41.4475 14.136C41.4475 14.232 41.4128 14.312 41.3435 14.376C41.2742 14.44 41.1835 14.472 41.0715 14.472H39.2235ZM44.6824 18.08C44.3411 18.08 44.0158 18.0267 43.7064 17.92C43.3971 17.8133 43.1278 17.664 42.8984 17.472C42.6691 17.28 42.5011 17.0587 42.3944 16.808C42.3411 16.696 42.3411 16.592 42.3944 16.496C42.4531 16.4 42.5491 16.3387 42.6824 16.312C42.7784 16.2907 42.8718 16.3067 42.9624 16.36C43.0584 16.408 43.1304 16.4827 43.1784 16.584C43.2424 16.7173 43.3464 16.84 43.4904 16.952C43.6398 17.064 43.8184 17.1547 44.0264 17.224C44.2344 17.2933 44.4531 17.328 44.6824 17.328C44.9384 17.328 45.1731 17.288 45.3864 17.208C45.6051 17.128 45.7811 17.0133 45.9144 16.864C46.0478 16.7093 46.1144 16.52 46.1144 16.296C46.1144 16.0133 46.0024 15.76 45.7784 15.536C45.5598 15.312 45.1971 15.1733 44.6904 15.12C44.0291 15.056 43.5091 14.8613 43.1304 14.536C42.7518 14.2107 42.5624 13.808 42.5624 13.328C42.5624 12.976 42.6611 12.6773 42.8584 12.432C43.0558 12.1867 43.3224 12 43.6584 11.872C43.9998 11.744 44.3784 11.68 44.7944 11.68C45.1198 11.68 45.4024 11.7253 45.6424 11.816C45.8878 11.9067 46.1011 12.032 46.2824 12.192C46.4638 12.352 46.6211 12.5413 46.7544 12.76C46.8291 12.8773 46.8584 12.9893 46.8424 13.096C46.8318 13.1973 46.7811 13.2773 46.6904 13.336C46.5891 13.4 46.4798 13.4133 46.3624 13.376C46.2451 13.3387 46.1571 13.2693 46.0984 13.168C46.0131 13.0133 45.9091 12.8827 45.7864 12.776C45.6638 12.6693 45.5198 12.5867 45.3544 12.528C45.1891 12.464 44.9944 12.432 44.7704 12.432C44.3758 12.4267 44.0451 12.5013 43.7784 12.656C43.5118 12.8053 43.3784 13.0373 43.3784 13.352C43.3784 13.512 43.4184 13.6667 43.4984 13.816C43.5838 13.96 43.7358 14.0853 43.9544 14.192C44.1784 14.2987 44.4984 14.3733 44.9144 14.416C45.5491 14.48 46.0424 14.6747 46.3944 15C46.7518 15.32 46.9304 15.744 46.9304 16.272C46.9304 16.576 46.8664 16.84 46.7384 17.064C46.6158 17.288 46.4478 17.4773 46.2344 17.632C46.0264 17.7813 45.7864 17.8933 45.5144 17.968C45.2478 18.0427 44.9704 18.08 44.6824 18.08ZM49.9503 18.032C49.5609 18.032 49.2116 17.936 48.9023 17.744C48.5929 17.5467 48.3476 17.2827 48.1663 16.952C47.9903 16.616 47.9023 16.2373 47.9023 15.816C47.9023 15.3947 47.9983 15.016 48.1903 14.68C48.3876 14.344 48.6516 14.08 48.9823 13.888C49.3183 13.6907 49.6943 13.592 50.1103 13.592C50.5263 13.592 50.8996 13.6907 51.2303 13.888C51.5609 14.08 51.8223 14.344 52.0143 14.68C52.2116 15.016 52.3103 15.3947 52.3103 15.816H51.9983C51.9983 16.2373 51.9076 16.616 51.7263 16.952C51.5503 17.2827 51.3076 17.5467 50.9983 17.744C50.6889 17.936 50.3396 18.032 49.9503 18.032ZM50.1103 17.312C50.3823 17.312 50.6249 17.248 50.8383 17.12C51.0516 16.9867 51.2196 16.808 51.3423 16.584C51.4649 16.3547 51.5263 16.0987 51.5263 15.816C51.5263 15.528 51.4649 15.272 51.3423 15.048C51.2196 14.8187 51.0516 14.64 50.8383 14.512C50.6249 14.3787 50.3823 14.312 50.1103 14.312C49.8436 14.312 49.6009 14.3787 49.3823 14.512C49.1689 14.64 48.9983 14.8187 48.8703 15.048C48.7476 15.272 48.6863 15.528 48.6863 15.816C48.6863 16.0987 48.7476 16.3547 48.8703 16.584C48.9983 16.808 49.1689 16.9867 49.3823 17.12C49.6009 17.248 49.8436 17.312 50.1103 17.312ZM51.9023 18.008C51.7849 18.008 51.6863 17.9707 51.6063 17.896C51.5316 17.816 51.4943 17.7173 51.4943 17.6V16.376L51.6463 15.528L52.3103 15.816V17.6C52.3103 17.7173 52.2703 17.816 52.1903 17.896C52.1156 17.9707 52.0196 18.008 51.9023 18.008ZM54.5647 18C54.33 18 54.122 17.936 53.9407 17.808C53.7594 17.68 53.618 17.5067 53.5167 17.288C53.4154 17.064 53.3647 16.808 53.3647 16.52V12.152C53.3647 12.0347 53.402 11.9387 53.4767 11.864C53.5514 11.7893 53.6474 11.752 53.7647 11.752C53.882 11.752 53.978 11.7893 54.0527 11.864C54.1274 11.9387 54.1647 12.0347 54.1647 12.152V16.52C54.1647 16.7173 54.202 16.88 54.2767 17.008C54.3514 17.136 54.4474 17.2 54.5647 17.2H54.7647C54.8714 17.2 54.9567 17.2373 55.0207 17.312C55.09 17.3867 55.1247 17.4827 55.1247 17.6C55.1247 17.7173 55.074 17.8133 54.9727 17.888C54.8714 17.9627 54.7407 18 54.5807 18H54.5647ZM57.7631 18.04C57.3951 18.04 57.0645 17.9627 56.7711 17.808C56.4831 17.648 56.2538 17.416 56.0831 17.112C55.9178 16.808 55.8351 16.4347 55.8351 15.992V14.024C55.8351 13.9067 55.8725 13.8107 55.9471 13.736C56.0271 13.656 56.1258 13.616 56.2431 13.616C56.3605 13.616 56.4565 13.656 56.5311 13.736C56.6111 13.8107 56.6511 13.9067 56.6511 14.024V15.992C56.6511 16.2907 56.7071 16.5387 56.8191 16.736C56.9311 16.928 57.0831 17.072 57.2751 17.168C57.4671 17.2587 57.6831 17.304 57.9231 17.304C58.1525 17.304 58.3551 17.2587 58.5311 17.168C58.7125 17.0773 58.8565 16.9547 58.9631 16.8C59.0698 16.6453 59.1231 16.472 59.1231 16.28H59.6271C59.6271 16.6107 59.5445 16.9093 59.3791 17.176C59.2191 17.4427 58.9978 17.6533 58.7151 17.808C58.4378 17.9627 58.1205 18.04 57.7631 18.04ZM59.5311 18C59.4138 18 59.3151 17.9627 59.2351 17.888C59.1605 17.808 59.1231 17.7093 59.1231 17.592V14.024C59.1231 13.9013 59.1605 13.8027 59.2351 13.728C59.3151 13.6533 59.4138 13.616 59.5311 13.616C59.6538 13.616 59.7525 13.6533 59.8271 13.728C59.9018 13.8027 59.9391 13.9013 59.9391 14.024V17.592C59.9391 17.7093 59.9018 17.808 59.8271 17.888C59.7525 17.9627 59.6538 18 59.5311 18ZM63.3603 18.032C62.9443 18.032 62.5683 17.936 62.2323 17.744C61.9016 17.5467 61.6376 17.28 61.4403 16.944C61.2483 16.608 61.1523 16.2293 61.1523 15.808C61.1523 15.3867 61.2403 15.0107 61.4163 14.68C61.5976 14.344 61.8429 14.08 62.1523 13.888C62.4616 13.6907 62.8109 13.592 63.2003 13.592C63.5149 13.592 63.8056 13.6587 64.0723 13.792C64.3389 13.92 64.5629 14.096 64.7443 14.32V12.16C64.7443 12.0373 64.7816 11.9387 64.8563 11.864C64.9363 11.7893 65.0349 11.752 65.1523 11.752C65.2749 11.752 65.3736 11.7893 65.4483 11.864C65.5229 11.9387 65.5603 12.0373 65.5603 12.16V15.808C65.5603 16.2293 65.4616 16.608 65.2643 16.944C65.0723 17.28 64.8109 17.5467 64.4803 17.744C64.1496 17.936 63.7763 18.032 63.3603 18.032ZM63.3603 17.312C63.6323 17.312 63.8749 17.248 64.0883 17.12C64.3016 16.9867 64.4696 16.8053 64.5923 16.576C64.7149 16.3467 64.7763 16.0907 64.7763 15.808C64.7763 15.52 64.7149 15.264 64.5923 15.04C64.4696 14.816 64.3016 14.64 64.0883 14.512C63.8749 14.3787 63.6323 14.312 63.3603 14.312C63.0936 14.312 62.8509 14.3787 62.6323 14.512C62.4189 14.64 62.2483 14.816 62.1203 15.04C61.9976 15.264 61.9363 15.52 61.9363 15.808C61.9363 16.0907 61.9976 16.3467 62.1203 16.576C62.2483 16.8053 62.4189 16.9867 62.6323 17.12C62.8509 17.248 63.0936 17.312 63.3603 17.312ZM70.865 11.744C71.2383 11.744 71.5663 11.8267 71.849 11.992C72.1317 12.152 72.353 12.376 72.513 12.664C72.673 12.9467 72.753 13.272 72.753 13.64C72.753 14.008 72.673 14.336 72.513 14.624C72.353 14.912 72.1317 15.1387 71.849 15.304C71.5663 15.464 71.2383 15.544 70.865 15.544C70.5023 15.544 70.177 15.464 69.889 15.304C69.6063 15.1387 69.385 14.912 69.225 14.624C69.065 14.336 68.985 14.008 68.985 13.64C68.985 13.272 69.065 12.9467 69.225 12.664C69.385 12.376 69.6063 12.152 69.889 11.992C70.1717 11.8267 70.497 11.744 70.865 11.744ZM70.873 12.464C70.6543 12.464 70.4597 12.5147 70.289 12.616C70.1237 12.712 69.993 12.848 69.897 13.024C69.801 13.2 69.753 13.4053 69.753 13.64C69.753 13.8693 69.801 14.0747 69.897 14.256C69.993 14.432 70.1237 14.5707 70.289 14.672C70.4597 14.7733 70.6543 14.824 70.873 14.824C71.0917 14.824 71.2837 14.7733 71.449 14.672C71.6197 14.5707 71.7503 14.432 71.841 14.256C71.937 14.0747 71.985 13.8693 71.985 13.64C71.985 13.4053 71.937 13.2 71.841 13.024C71.7503 12.848 71.6197 12.712 71.449 12.616C71.2837 12.5147 71.0917 12.464 70.873 12.464ZM72.489 14.664L70.633 17.76C70.537 17.9093 70.4143 17.984 70.265 17.984C70.1583 17.984 70.065 17.952 69.985 17.888C69.9103 17.824 69.8623 17.744 69.841 17.648C69.825 17.5467 69.8463 17.4507 69.905 17.36L71.041 15.472L72.489 14.664ZM75.7694 18C75.3694 18 75.0148 17.9173 74.7054 17.752C74.3961 17.5813 74.1534 17.352 73.9774 17.064C73.8014 16.7707 73.7134 16.4427 73.7134 16.08C73.7134 15.9573 73.7481 15.8587 73.8174 15.784C73.8921 15.704 73.9801 15.664 74.0814 15.664C74.1881 15.664 74.2761 15.704 74.3454 15.784C74.4148 15.8587 74.4494 15.9573 74.4494 16.08C74.4494 16.2987 74.5054 16.5013 74.6174 16.688C74.7294 16.8693 74.8814 17.016 75.0734 17.128C75.2654 17.2347 75.4814 17.288 75.7214 17.288C76.0734 17.288 76.3561 17.192 76.5694 17C76.7881 16.8027 76.8974 16.528 76.8974 16.176C76.8974 15.952 76.8494 15.752 76.7534 15.576C76.6574 15.3947 76.5268 15.2507 76.3614 15.144C76.1961 15.0373 76.0094 14.984 75.8014 14.984C75.6841 14.984 75.5854 14.944 75.5054 14.864C75.4308 14.784 75.3934 14.6853 75.3934 14.568C75.3934 14.4507 75.4308 14.3547 75.5054 14.28C75.5854 14.2 75.6841 14.16 75.8014 14.16C75.9508 14.16 76.0948 14.1227 76.2334 14.048C76.3721 13.968 76.4868 13.864 76.5774 13.736C76.6681 13.6027 76.7134 13.4533 76.7134 13.288C76.7134 13.0533 76.6281 12.856 76.4574 12.696C76.2868 12.536 76.0681 12.456 75.8014 12.456C75.5988 12.456 75.4121 12.496 75.2414 12.576C75.0761 12.656 74.9428 12.7627 74.8414 12.896C74.7454 13.0293 74.6974 13.1787 74.6974 13.344C74.6974 13.4667 74.6628 13.5707 74.5934 13.656C74.5241 13.736 74.4361 13.776 74.3294 13.776C74.2281 13.776 74.1401 13.7387 74.0654 13.664C73.9961 13.584 73.9614 13.4853 73.9614 13.368C73.9614 13.0587 74.0414 12.7813 74.2014 12.536C74.3614 12.2907 74.5801 12.0987 74.8574 11.96C75.1348 11.816 75.4441 11.744 75.7854 11.744C76.1001 11.744 76.3828 11.8133 76.6334 11.952C76.8894 12.0853 77.0894 12.2693 77.2334 12.504C77.3828 12.7333 77.4574 12.9947 77.4574 13.288C77.4574 13.496 77.4094 13.68 77.3134 13.84C77.2228 14 77.1054 14.1387 76.9614 14.256C76.8174 14.368 76.6654 14.4613 76.5054 14.536C76.7881 14.632 77.0174 14.7627 77.1934 14.928C77.3694 15.088 77.4974 15.2747 77.5774 15.488C77.6628 15.7013 77.7054 15.9333 77.7054 16.184C77.7054 16.5307 77.6174 16.8427 77.4414 17.12C77.2654 17.392 77.0308 17.608 76.7374 17.768C76.4441 17.9227 76.1214 18 75.7694 18Z" fill="black"/>
<rect x="7" y="161" width="136" height="12" rx="6" fill="#0F1035"/>
<circle cx="151" cy="167" r="6" fill="#0B2F9F"/>
<rect width="42" height="2" rx="1" transform="matrix(1 0 0 -1 61 182)" fill="#D9D9D9"/>
<path d="M19.216 170C19.0987 170 19 169.96 18.92 169.88C18.84 169.8 18.8 169.701 18.8 169.584V164.168C18.8 164.045 18.84 163.947 18.92 163.872C19 163.792 19.0987 163.752 19.216 163.752C19.376 163.752 19.4987 163.827 19.584 163.976L22.088 168.992H21.832L24.272 163.976C24.3573 163.827 24.48 163.752 24.64 163.752C24.7573 163.752 24.856 163.792 24.936 163.872C25.016 163.947 25.056 164.045 25.056 164.168V169.584C25.056 169.701 25.0133 169.8 24.928 169.88C24.848 169.96 24.752 170 24.64 170C24.5227 170 24.424 169.96 24.344 169.88C24.264 169.8 24.224 169.701 24.224 169.584V165.32L24.384 165.28L22.288 169.552C22.1973 169.691 22.0773 169.76 21.928 169.76C21.752 169.76 21.624 169.677 21.544 169.512L19.472 165.36L19.632 165.32V169.584C19.632 169.701 19.592 169.8 19.512 169.88C19.432 169.96 19.3333 170 19.216 170ZM28.6354 170.032C28.1927 170.032 27.798 169.939 27.4514 169.752C27.11 169.56 26.8407 169.299 26.6434 168.968C26.4514 168.632 26.3554 168.248 26.3554 167.816C26.3554 167.379 26.446 166.995 26.6274 166.664C26.814 166.328 27.07 166.067 27.3954 165.88C27.7207 165.688 28.094 165.592 28.5154 165.592C28.9314 165.592 29.2887 165.685 29.5874 165.872C29.886 166.053 30.1127 166.307 30.2674 166.632C30.4274 166.952 30.5074 167.323 30.5074 167.744C30.5074 167.845 30.4727 167.931 30.4034 168C30.334 168.064 30.246 168.096 30.1394 168.096H26.9154V167.456H30.1154L29.7874 167.68C29.782 167.413 29.7287 167.176 29.6274 166.968C29.526 166.755 29.382 166.587 29.1954 166.464C29.0087 166.341 28.782 166.28 28.5154 166.28C28.2114 166.28 27.95 166.347 27.7314 166.48C27.518 166.613 27.3554 166.797 27.2434 167.032C27.1314 167.261 27.0754 167.523 27.0754 167.816C27.0754 168.109 27.142 168.371 27.2754 168.6C27.4087 168.829 27.5927 169.011 27.8274 169.144C28.062 169.277 28.3314 169.344 28.6354 169.344C28.8007 169.344 28.9687 169.315 29.1394 169.256C29.3154 169.192 29.4567 169.12 29.5634 169.04C29.6434 168.981 29.7287 168.952 29.8194 168.952C29.9154 168.947 29.998 168.973 30.0674 169.032C30.158 169.112 30.206 169.2 30.2114 169.296C30.2167 169.392 30.174 169.475 30.0834 169.544C29.902 169.688 29.6754 169.805 29.4034 169.896C29.1367 169.987 28.8807 170.032 28.6354 170.032ZM35.2441 170.008C35.1268 170.008 35.0281 169.971 34.9481 169.896C34.8735 169.816 34.8361 169.717 34.8361 169.6V167.632C34.8361 167.328 34.7801 167.08 34.6681 166.888C34.5561 166.696 34.4041 166.555 34.2121 166.464C34.0255 166.368 33.8095 166.32 33.5641 166.32C33.3401 166.32 33.1375 166.365 32.9561 166.456C32.7748 166.547 32.6308 166.669 32.5241 166.824C32.4175 166.973 32.3641 167.147 32.3641 167.344H31.8601C31.8601 167.008 31.9401 166.709 32.1001 166.448C32.2655 166.181 32.4895 165.971 32.7721 165.816C33.0548 165.661 33.3721 165.584 33.7241 165.584C34.0921 165.584 34.4201 165.664 34.7081 165.824C35.0015 165.979 35.2308 166.208 35.3961 166.512C35.5668 166.816 35.6521 167.189 35.6521 167.632V169.6C35.6521 169.717 35.6121 169.816 35.5321 169.896C35.4575 169.971 35.3615 170.008 35.2441 170.008ZM31.9561 170.008C31.8388 170.008 31.7401 169.971 31.6601 169.896C31.5855 169.816 31.5481 169.717 31.5481 169.6V166.032C31.5481 165.909 31.5855 165.811 31.6601 165.736C31.7401 165.661 31.8388 165.624 31.9561 165.624C32.0788 165.624 32.1775 165.661 32.2521 165.736C32.3268 165.811 32.3641 165.909 32.3641 166.032V169.6C32.3641 169.717 32.3268 169.816 32.2521 169.896C32.1775 169.971 32.0788 170.008 31.9561 170.008ZM38.5933 170.032C38.2199 170.032 37.8733 169.976 37.5533 169.864C37.2386 169.747 36.9933 169.6 36.8173 169.424C36.7373 169.339 36.7026 169.243 36.7133 169.136C36.7293 169.024 36.7826 168.933 36.8733 168.864C36.9799 168.779 37.0839 168.744 37.1853 168.76C37.2919 168.771 37.3826 168.816 37.4572 168.896C37.5479 168.997 37.6919 169.093 37.8893 169.184C38.0919 169.269 38.3159 169.312 38.5613 169.312C38.8706 169.312 39.1053 169.261 39.2653 169.16C39.4306 169.059 39.5159 168.928 39.5213 168.768C39.5266 168.608 39.4493 168.469 39.2893 168.352C39.1346 168.235 38.8493 168.139 38.4333 168.064C37.8946 167.957 37.5026 167.797 37.2573 167.584C37.0173 167.371 36.8973 167.109 36.8973 166.8C36.8973 166.528 36.9773 166.304 37.1373 166.128C37.2973 165.947 37.5026 165.813 37.7533 165.728C38.0039 165.637 38.2653 165.592 38.5373 165.592C38.8893 165.592 39.2013 165.648 39.4733 165.76C39.7453 165.872 39.9613 166.027 40.1213 166.224C40.1959 166.309 40.2306 166.4 40.2253 166.496C40.2199 166.587 40.1746 166.664 40.0893 166.728C40.0039 166.787 39.9026 166.805 39.7853 166.784C39.6679 166.763 39.5693 166.715 39.4893 166.64C39.3559 166.512 39.2119 166.424 39.0573 166.376C38.9026 166.328 38.7239 166.304 38.5213 166.304C38.2866 166.304 38.0866 166.344 37.9213 166.424C37.7613 166.504 37.6813 166.621 37.6813 166.776C37.6813 166.872 37.7053 166.96 37.7533 167.04C37.8066 167.115 37.9079 167.184 38.0573 167.248C38.2066 167.307 38.4253 167.365 38.7133 167.424C39.1133 167.504 39.4279 167.605 39.6573 167.728C39.8919 167.851 40.0599 167.995 40.1613 168.16C40.2626 168.32 40.3133 168.507 40.3133 168.72C40.3133 168.965 40.2466 169.187 40.1133 169.384C39.9853 169.581 39.7933 169.739 39.5373 169.856C39.2866 169.973 38.9719 170.032 38.5933 170.032ZM43.169 170.032C42.7797 170.032 42.4303 169.936 42.121 169.744C41.8117 169.547 41.5663 169.283 41.385 168.952C41.209 168.616 41.121 168.237 41.121 167.816C41.121 167.395 41.217 167.016 41.409 166.68C41.6063 166.344 41.8703 166.08 42.201 165.888C42.537 165.691 42.913 165.592 43.329 165.592C43.745 165.592 44.1183 165.691 44.449 165.888C44.7797 166.08 45.041 166.344 45.233 166.68C45.4303 167.016 45.529 167.395 45.529 167.816H45.217C45.217 168.237 45.1263 168.616 44.945 168.952C44.769 169.283 44.5263 169.547 44.217 169.744C43.9077 169.936 43.5583 170.032 43.169 170.032ZM43.329 169.312C43.601 169.312 43.8437 169.248 44.057 169.12C44.2703 168.987 44.4383 168.808 44.561 168.584C44.6837 168.355 44.745 168.099 44.745 167.816C44.745 167.528 44.6837 167.272 44.561 167.048C44.4383 166.819 44.2703 166.64 44.057 166.512C43.8437 166.379 43.601 166.312 43.329 166.312C43.0623 166.312 42.8197 166.379 42.601 166.512C42.3877 166.64 42.217 166.819 42.089 167.048C41.9663 167.272 41.905 167.528 41.905 167.816C41.905 168.099 41.9663 168.355 42.089 168.584C42.217 168.808 42.3877 168.987 42.601 169.12C42.8197 169.248 43.0623 169.312 43.329 169.312ZM45.121 170.008C45.0037 170.008 44.905 169.971 44.825 169.896C44.7503 169.816 44.713 169.717 44.713 169.6V168.376L44.865 167.528L45.529 167.816V169.6C45.529 169.717 45.489 169.816 45.409 169.896C45.3343 169.971 45.2383 170.008 45.121 170.008ZM45.6234 171.872C45.5061 171.872 45.4101 171.832 45.3354 171.752C45.2608 171.677 45.2234 171.581 45.2234 171.464C45.2234 171.341 45.2608 171.243 45.3354 171.168C45.4101 171.093 45.5061 171.056 45.6234 171.056C45.8368 171.056 46.0234 171.008 46.1834 170.912C46.3434 170.821 46.4688 170.696 46.5594 170.536C46.6554 170.376 46.7034 170.192 46.7034 169.984V166.032C46.7034 165.909 46.7408 165.811 46.8154 165.736C46.8954 165.661 46.9941 165.624 47.1114 165.624C47.2341 165.624 47.3328 165.661 47.4074 165.736C47.4821 165.811 47.5194 165.909 47.5194 166.032V169.984C47.5194 170.352 47.4368 170.677 47.2714 170.96C47.1114 171.243 46.8901 171.464 46.6074 171.624C46.3248 171.789 45.9968 171.872 45.6234 171.872ZM47.1114 164.912C46.9674 164.912 46.8421 164.861 46.7354 164.76C46.6341 164.653 46.5834 164.528 46.5834 164.384C46.5834 164.24 46.6341 164.117 46.7354 164.016C46.8421 163.909 46.9674 163.856 47.1114 163.856C47.2554 163.856 47.3781 163.909 47.4794 164.016C47.5861 164.117 47.6394 164.24 47.6394 164.384C47.6394 164.528 47.5861 164.653 47.4794 164.76C47.3781 164.861 47.2554 164.912 47.1114 164.912ZM50.776 170.032C50.3333 170.032 49.9387 169.939 49.592 169.752C49.2507 169.56 48.9813 169.299 48.784 168.968C48.592 168.632 48.496 168.248 48.496 167.816C48.496 167.379 48.5867 166.995 48.768 166.664C48.9547 166.328 49.2107 166.067 49.536 165.88C49.8613 165.688 50.2347 165.592 50.656 165.592C51.072 165.592 51.4293 165.685 51.728 165.872C52.0267 166.053 52.2533 166.307 52.408 166.632C52.568 166.952 52.648 167.323 52.648 167.744C52.648 167.845 52.6133 167.931 52.544 168C52.4747 168.064 52.3867 168.096 52.28 168.096H49.056V167.456H52.256L51.928 167.68C51.9227 167.413 51.8693 167.176 51.768 166.968C51.6667 166.755 51.5227 166.587 51.336 166.464C51.1493 166.341 50.9227 166.28 50.656 166.28C50.352 166.28 50.0907 166.347 49.872 166.48C49.6587 166.613 49.496 166.797 49.384 167.032C49.272 167.261 49.216 167.523 49.216 167.816C49.216 168.109 49.2827 168.371 49.416 168.6C49.5493 168.829 49.7333 169.011 49.968 169.144C50.2027 169.277 50.472 169.344 50.776 169.344C50.9413 169.344 51.1093 169.315 51.28 169.256C51.456 169.192 51.5973 169.12 51.704 169.04C51.784 168.981 51.8693 168.952 51.96 168.952C52.056 168.947 52.1387 168.973 52.208 169.032C52.2987 169.112 52.3467 169.2 52.352 169.296C52.3573 169.392 52.3147 169.475 52.224 169.544C52.0427 169.688 51.816 169.805 51.544 169.896C51.2773 169.987 51.0213 170.032 50.776 170.032Z" fill="white"/>
<path d="M63.912 38C63.824 38 63.75 37.97 63.69 37.91C63.63 37.85 63.6 37.776 63.6 37.688V33.626C63.6 33.534 63.63 33.46 63.69 33.404C63.75 33.344 63.824 33.314 63.912 33.314C64.004 33.314 64.078 33.344 64.134 33.404C64.194 33.46 64.224 33.534 64.224 33.626V35.348H67.008V33.626C67.008 33.534 67.038 33.46 67.098 33.404C67.158 33.344 67.232 33.314 67.32 33.314C67.412 33.314 67.486 33.344 67.542 33.404C67.598 33.46 67.626 33.534 67.626 33.626V37.688C67.626 37.776 67.598 37.85 67.542 37.91C67.486 37.97 67.412 38 67.32 38C67.232 38 67.158 37.97 67.098 37.91C67.038 37.85 67.008 37.776 67.008 37.688V35.9H64.224V37.688C64.224 37.776 64.194 37.85 64.134 37.91C64.078 37.97 64.004 38 63.912 38ZM70.2546 38.024C69.9306 38.024 69.6446 37.954 69.3966 37.814C69.1486 37.67 68.9526 37.474 68.8086 37.226C68.6686 36.974 68.5986 36.686 68.5986 36.362C68.5986 36.034 68.6686 35.746 68.8086 35.498C68.9526 35.246 69.1486 35.05 69.3966 34.91C69.6446 34.766 69.9306 34.694 70.2546 34.694C70.5746 34.694 70.8586 34.766 71.1066 34.91C71.3546 35.05 71.5486 35.246 71.6886 35.498C71.8326 35.746 71.9046 36.034 71.9046 36.362C71.9046 36.686 71.8346 36.974 71.6946 37.226C71.5546 37.474 71.3606 37.67 71.1126 37.814C70.8646 37.954 70.5786 38.024 70.2546 38.024ZM70.2546 37.484C70.4626 37.484 70.6466 37.436 70.8066 37.34C70.9666 37.244 71.0906 37.112 71.1786 36.944C71.2706 36.776 71.3166 36.582 71.3166 36.362C71.3166 36.142 71.2706 35.948 71.1786 35.78C71.0906 35.608 70.9666 35.474 70.8066 35.378C70.6466 35.282 70.4626 35.234 70.2546 35.234C70.0466 35.234 69.8626 35.282 69.7026 35.378C69.5426 35.474 69.4166 35.608 69.3246 35.78C69.2326 35.948 69.1866 36.142 69.1866 36.362C69.1866 36.582 69.2326 36.776 69.3246 36.944C69.4166 37.112 69.5426 37.244 69.7026 37.34C69.8626 37.436 70.0466 37.484 70.2546 37.484ZM73.5954 38C73.4194 38 73.2634 37.952 73.1274 37.856C72.9914 37.76 72.8854 37.63 72.8094 37.466C72.7334 37.298 72.6954 37.106 72.6954 36.89V33.614C72.6954 33.526 72.7234 33.454 72.7794 33.398C72.8354 33.342 72.9074 33.314 72.9954 33.314C73.0834 33.314 73.1554 33.342 73.2114 33.398C73.2674 33.454 73.2954 33.526 73.2954 33.614V36.89C73.2954 37.038 73.3234 37.16 73.3794 37.256C73.4354 37.352 73.5074 37.4 73.5954 37.4H73.7454C73.8254 37.4 73.8894 37.428 73.9374 37.484C73.9894 37.54 74.0154 37.612 74.0154 37.7C74.0154 37.788 73.9774 37.86 73.9014 37.916C73.8254 37.972 73.7274 38 73.6074 38H73.5954ZM75.8006 38.024C75.5086 38.024 75.2466 37.952 75.0146 37.808C74.7826 37.66 74.5986 37.462 74.4626 37.214C74.3306 36.962 74.2646 36.678 74.2646 36.362C74.2646 36.046 74.3366 35.762 74.4806 35.51C74.6286 35.258 74.8266 35.06 75.0746 34.916C75.3266 34.768 75.6086 34.694 75.9206 34.694C76.2326 34.694 76.5126 34.768 76.7606 34.916C77.0086 35.06 77.2046 35.258 77.3486 35.51C77.4966 35.762 77.5706 36.046 77.5706 36.362H77.3366C77.3366 36.678 77.2686 36.962 77.1326 37.214C77.0006 37.462 76.8186 37.66 76.5866 37.808C76.3546 37.952 76.0926 38.024 75.8006 38.024ZM75.9206 37.484C76.1246 37.484 76.3066 37.436 76.4666 37.34C76.6266 37.24 76.7526 37.106 76.8446 36.938C76.9366 36.766 76.9826 36.574 76.9826 36.362C76.9826 36.146 76.9366 35.954 76.8446 35.786C76.7526 35.614 76.6266 35.48 76.4666 35.384C76.3066 35.284 76.1246 35.234 75.9206 35.234C75.7206 35.234 75.5386 35.284 75.3746 35.384C75.2146 35.48 75.0866 35.614 74.9906 35.786C74.8986 35.954 74.8526 36.146 74.8526 36.362C74.8526 36.574 74.8986 36.766 74.9906 36.938C75.0866 37.106 75.2146 37.24 75.3746 37.34C75.5386 37.436 75.7206 37.484 75.9206 37.484ZM77.2646 38.006C77.1766 38.006 77.1026 37.978 77.0426 37.922C76.9866 37.862 76.9586 37.788 76.9586 37.7V36.782L77.0726 36.146L77.5706 36.362V37.7C77.5706 37.788 77.5406 37.862 77.4806 37.922C77.4246 37.978 77.3526 38.006 77.2646 38.006ZM78.4274 39.038C78.3794 39.038 78.3414 39.022 78.3134 38.99C78.2894 38.958 78.2774 38.922 78.2774 38.882C78.2774 38.802 78.2994 38.732 78.3434 38.672C78.3914 38.616 78.4374 38.554 78.4814 38.486C78.5294 38.418 78.5534 38.336 78.5534 38.24C78.5534 38.172 78.5374 38.116 78.5054 38.072C78.4734 38.028 78.4374 37.988 78.3974 37.952C78.3574 37.912 78.3214 37.868 78.2894 37.82C78.2574 37.772 78.2414 37.712 78.2414 37.64C78.2414 37.532 78.2774 37.442 78.3494 37.37C78.4214 37.298 78.5194 37.262 78.6434 37.262C78.7954 37.262 78.9094 37.314 78.9854 37.418C79.0654 37.522 79.1074 37.662 79.1114 37.838C79.1114 37.966 79.0894 38.1 79.0454 38.24C79.0054 38.38 78.9494 38.51 78.8774 38.63C78.8094 38.75 78.7354 38.848 78.6554 38.924C78.5754 39 78.4994 39.038 78.4274 39.038ZM82.8199 37.994C82.6959 37.994 82.5999 37.928 82.5319 37.796L81.2599 35.114C81.2279 35.046 81.2239 34.98 81.2479 34.916C81.2759 34.848 81.3279 34.796 81.4039 34.76C81.4719 34.724 81.5399 34.718 81.6079 34.742C81.6799 34.766 81.7339 34.812 81.7699 34.88L82.9579 37.442H82.6699L83.8459 34.88C83.8819 34.812 83.9359 34.766 84.0079 34.742C84.0839 34.718 84.1599 34.724 84.2359 34.76C84.3079 34.792 84.3559 34.842 84.3799 34.91C84.4039 34.978 84.3999 35.046 84.3679 35.114L83.0959 37.796C83.0359 37.928 82.9439 37.994 82.8199 37.994ZM86.4218 38.024C86.0898 38.024 85.7938 37.954 85.5338 37.814C85.2778 37.67 85.0758 37.474 84.9278 37.226C84.7838 36.974 84.7118 36.686 84.7118 36.362C84.7118 36.034 84.7798 35.746 84.9158 35.498C85.0558 35.246 85.2478 35.05 85.4918 34.91C85.7358 34.766 86.0158 34.694 86.3318 34.694C86.6438 34.694 86.9118 34.764 87.1358 34.904C87.3598 35.04 87.5298 35.23 87.6458 35.474C87.7658 35.714 87.8258 35.992 87.8258 36.308C87.8258 36.384 87.7998 36.448 87.7478 36.5C87.6958 36.548 87.6298 36.572 87.5498 36.572H85.1318V36.092H87.5318L87.2858 36.26C87.2818 36.06 87.2418 35.882 87.1658 35.726C87.0898 35.566 86.9818 35.44 86.8418 35.348C86.7018 35.256 86.5318 35.21 86.3318 35.21C86.1038 35.21 85.9078 35.26 85.7438 35.36C85.5838 35.46 85.4618 35.598 85.3778 35.774C85.2938 35.946 85.2518 36.142 85.2518 36.362C85.2518 36.582 85.3018 36.778 85.4018 36.95C85.5018 37.122 85.6398 37.258 85.8158 37.358C85.9918 37.458 86.1938 37.508 86.4218 37.508C86.5458 37.508 86.6718 37.486 86.7998 37.442C86.9318 37.394 87.0378 37.34 87.1178 37.28C87.1778 37.236 87.2418 37.214 87.3098 37.214C87.3818 37.21 87.4438 37.23 87.4958 37.274C87.5638 37.334 87.5998 37.4 87.6038 37.472C87.6078 37.544 87.5758 37.606 87.5078 37.658C87.3718 37.766 87.2018 37.854 86.9978 37.922C86.7978 37.99 86.6058 38.024 86.4218 38.024ZM91.3784 38.006C91.2904 38.006 91.2164 37.978 91.1564 37.922C91.1004 37.862 91.0724 37.788 91.0724 37.7V36.224C91.0724 35.996 91.0304 35.81 90.9464 35.666C90.8624 35.522 90.7484 35.416 90.6044 35.348C90.4644 35.276 90.3024 35.24 90.1184 35.24C89.9504 35.24 89.7984 35.274 89.6624 35.342C89.5264 35.41 89.4184 35.502 89.3384 35.618C89.2584 35.73 89.2184 35.86 89.2184 36.008H88.8404C88.8404 35.756 88.9004 35.532 89.0204 35.336C89.1444 35.136 89.3124 34.978 89.5244 34.862C89.7364 34.746 89.9744 34.688 90.2384 34.688C90.5144 34.688 90.7604 34.748 90.9764 34.868C91.1964 34.984 91.3684 35.156 91.4924 35.384C91.6204 35.612 91.6844 35.892 91.6844 36.224V37.7C91.6844 37.788 91.6544 37.862 91.5944 37.922C91.5384 37.978 91.4664 38.006 91.3784 38.006ZM88.9124 38.006C88.8244 38.006 88.7504 37.978 88.6904 37.922C88.6344 37.862 88.6064 37.788 88.6064 37.7V35.024C88.6064 34.932 88.6344 34.858 88.6904 34.802C88.7504 34.746 88.8244 34.718 88.9124 34.718C89.0044 34.718 89.0784 34.746 89.1344 34.802C89.1904 34.858 89.2184 34.932 89.2184 35.024V37.7C89.2184 37.788 89.1904 37.862 89.1344 37.922C89.0784 37.978 89.0044 38.006 88.9124 38.006ZM94.0643 38.024C93.7643 38.024 93.4983 37.954 93.2663 37.814C93.0383 37.67 92.8583 37.474 92.7263 37.226C92.5943 36.974 92.5283 36.686 92.5283 36.362C92.5283 36.034 92.5983 35.746 92.7383 35.498C92.8823 35.246 93.0783 35.05 93.3263 34.91C93.5743 34.766 93.8603 34.694 94.1843 34.694C94.5043 34.694 94.7883 34.766 95.0363 34.91C95.2843 35.05 95.4783 35.246 95.6183 35.498C95.7623 35.746 95.8343 36.034 95.8343 36.362H95.4803C95.4803 36.686 95.4183 36.974 95.2943 37.226C95.1743 37.474 95.0083 37.67 94.7963 37.814C94.5843 37.954 94.3403 38.024 94.0643 38.024ZM94.1723 39.362C93.8883 39.362 93.6223 39.306 93.3743 39.194C93.1263 39.082 92.9163 38.918 92.7443 38.702C92.6923 38.634 92.6723 38.564 92.6843 38.492C92.7003 38.42 92.7403 38.362 92.8043 38.318C92.8763 38.27 92.9503 38.254 93.0263 38.27C93.1063 38.286 93.1703 38.326 93.2183 38.39C93.3263 38.526 93.4623 38.632 93.6263 38.708C93.7903 38.784 93.9763 38.822 94.1843 38.822C94.3763 38.822 94.5523 38.776 94.7123 38.684C94.8763 38.592 95.0063 38.456 95.1023 38.276C95.1983 38.096 95.2463 37.876 95.2463 37.616V36.764L95.4443 36.236L95.8343 36.362V37.658C95.8343 37.974 95.7643 38.26 95.6243 38.516C95.4843 38.776 95.2883 38.982 95.0363 39.134C94.7883 39.286 94.5003 39.362 94.1723 39.362ZM94.1843 37.484C94.3923 37.484 94.5763 37.436 94.7363 37.34C94.8963 37.244 95.0203 37.112 95.1083 36.944C95.2003 36.776 95.2463 36.582 95.2463 36.362C95.2463 36.142 95.2003 35.948 95.1083 35.78C95.0203 35.608 94.8963 35.474 94.7363 35.378C94.5763 35.282 94.3923 35.234 94.1843 35.234C93.9763 35.234 93.7923 35.282 93.6323 35.378C93.4723 35.474 93.3463 35.608 93.2543 35.78C93.1623 35.948 93.1163 36.142 93.1163 36.362C93.1163 36.582 93.1623 36.776 93.2543 36.944C93.3463 37.112 93.4723 37.244 93.6323 37.34C93.7923 37.436 93.9763 37.484 94.1843 37.484ZM98.2331 38.024C97.9091 38.024 97.6231 37.954 97.3751 37.814C97.1271 37.67 96.9311 37.474 96.7871 37.226C96.6471 36.974 96.5771 36.686 96.5771 36.362C96.5771 36.034 96.6471 35.746 96.7871 35.498C96.9311 35.246 97.1271 35.05 97.3751 34.91C97.6231 34.766 97.9091 34.694 98.2331 34.694C98.5531 34.694 98.8371 34.766 99.0851 34.91C99.3331 35.05 99.5271 35.246 99.6671 35.498C99.8111 35.746 99.8831 36.034 99.8831 36.362C99.8831 36.686 99.8131 36.974 99.6731 37.226C99.5331 37.474 99.3391 37.67 99.0911 37.814C98.8431 37.954 98.5571 38.024 98.2331 38.024ZM98.2331 37.484C98.4411 37.484 98.6251 37.436 98.7851 37.34C98.9451 37.244 99.0691 37.112 99.1571 36.944C99.2491 36.776 99.2951 36.582 99.2951 36.362C99.2951 36.142 99.2491 35.948 99.1571 35.78C99.0691 35.608 98.9451 35.474 98.7851 35.378C98.6251 35.282 98.4411 35.234 98.2331 35.234C98.0251 35.234 97.8411 35.282 97.6811 35.378C97.5211 35.474 97.3951 35.608 97.3031 35.78C97.2111 35.948 97.1651 36.142 97.1651 36.362C97.1651 36.582 97.2111 36.776 97.3031 36.944C97.3951 37.112 97.5211 37.244 97.6811 37.34C97.8411 37.436 98.0251 37.484 98.2331 37.484ZM104.04 38.024C103.728 38.024 103.446 37.952 103.194 37.808C102.946 37.66 102.748 37.46 102.6 37.208C102.456 36.956 102.384 36.672 102.384 36.356C102.384 36.04 102.45 35.758 102.582 35.51C102.718 35.258 102.902 35.06 103.134 34.916C103.366 34.768 103.628 34.694 103.92 34.694C104.156 34.694 104.374 34.744 104.574 34.844C104.774 34.94 104.942 35.072 105.078 35.24V33.62C105.078 33.528 105.106 33.454 105.162 33.398C105.222 33.342 105.296 33.314 105.384 33.314C105.476 33.314 105.55 33.342 105.606 33.398C105.662 33.454 105.69 33.528 105.69 33.62V36.356C105.69 36.672 105.616 36.956 105.468 37.208C105.324 37.46 105.128 37.66 104.88 37.808C104.632 37.952 104.352 38.024 104.04 38.024ZM104.04 37.484C104.244 37.484 104.426 37.436 104.586 37.34C104.746 37.24 104.872 37.104 104.964 36.932C105.056 36.76 105.102 36.568 105.102 36.356C105.102 36.14 105.056 35.948 104.964 35.78C104.872 35.612 104.746 35.48 104.586 35.384C104.426 35.284 104.244 35.234 104.04 35.234C103.84 35.234 103.658 35.284 103.494 35.384C103.334 35.48 103.206 35.612 103.11 35.78C103.018 35.948 102.972 36.14 102.972 36.356C102.972 36.568 103.018 36.76 103.11 36.932C103.206 37.104 103.334 37.24 103.494 37.34C103.658 37.436 103.84 37.484 104.04 37.484ZM108.312 38.024C107.98 38.024 107.684 37.954 107.424 37.814C107.168 37.67 106.966 37.474 106.818 37.226C106.674 36.974 106.602 36.686 106.602 36.362C106.602 36.034 106.67 35.746 106.806 35.498C106.946 35.246 107.138 35.05 107.382 34.91C107.626 34.766 107.906 34.694 108.222 34.694C108.534 34.694 108.802 34.764 109.026 34.904C109.25 35.04 109.42 35.23 109.536 35.474C109.656 35.714 109.716 35.992 109.716 36.308C109.716 36.384 109.69 36.448 109.638 36.5C109.586 36.548 109.52 36.572 109.44 36.572H107.022V36.092H109.422L109.176 36.26C109.172 36.06 109.132 35.882 109.056 35.726C108.98 35.566 108.872 35.44 108.732 35.348C108.592 35.256 108.422 35.21 108.222 35.21C107.994 35.21 107.798 35.26 107.634 35.36C107.474 35.46 107.352 35.598 107.268 35.774C107.184 35.946 107.142 36.142 107.142 36.362C107.142 36.582 107.192 36.778 107.292 36.95C107.392 37.122 107.53 37.258 107.706 37.358C107.882 37.458 108.084 37.508 108.312 37.508C108.436 37.508 108.562 37.486 108.69 37.442C108.822 37.394 108.928 37.34 109.008 37.28C109.068 37.236 109.132 37.214 109.2 37.214C109.272 37.21 109.334 37.23 109.386 37.274C109.454 37.334 109.49 37.4 109.494 37.472C109.498 37.544 109.466 37.606 109.398 37.658C109.262 37.766 109.092 37.854 108.888 37.922C108.688 37.99 108.496 38.024 108.312 38.024ZM111.691 38.024C111.411 38.024 111.151 37.982 110.911 37.898C110.675 37.81 110.491 37.7 110.359 37.568C110.299 37.504 110.273 37.432 110.281 37.352C110.293 37.268 110.333 37.2 110.401 37.148C110.481 37.084 110.559 37.058 110.635 37.07C110.715 37.078 110.783 37.112 110.839 37.172C110.907 37.248 111.015 37.32 111.163 37.388C111.315 37.452 111.483 37.484 111.667 37.484C111.899 37.484 112.075 37.446 112.195 37.37C112.319 37.294 112.383 37.196 112.387 37.076C112.391 36.956 112.333 36.852 112.213 36.764C112.097 36.676 111.883 36.604 111.571 36.548C111.167 36.468 110.873 36.348 110.689 36.188C110.509 36.028 110.419 35.832 110.419 35.6C110.419 35.396 110.479 35.228 110.599 35.096C110.719 34.96 110.873 34.86 111.061 34.796C111.249 34.728 111.445 34.694 111.649 34.694C111.913 34.694 112.147 34.736 112.351 34.82C112.555 34.904 112.717 35.02 112.837 35.168C112.893 35.232 112.919 35.3 112.915 35.372C112.911 35.44 112.877 35.498 112.813 35.546C112.749 35.59 112.673 35.604 112.585 35.588C112.497 35.572 112.423 35.536 112.363 35.48C112.263 35.384 112.155 35.318 112.039 35.282C111.923 35.246 111.789 35.228 111.637 35.228C111.461 35.228 111.311 35.258 111.187 35.318C111.067 35.378 111.007 35.466 111.007 35.582C111.007 35.654 111.025 35.72 111.061 35.78C111.101 35.836 111.177 35.888 111.289 35.936C111.401 35.98 111.565 36.024 111.781 36.068C112.081 36.128 112.317 36.204 112.489 36.296C112.665 36.388 112.791 36.496 112.867 36.62C112.943 36.74 112.981 36.88 112.981 37.04C112.981 37.224 112.931 37.39 112.831 37.538C112.735 37.686 112.591 37.804 112.399 37.892C112.211 37.98 111.975 38.024 111.691 38.024ZM115.243 38.024C114.931 38.024 114.649 37.952 114.397 37.808C114.149 37.66 113.951 37.46 113.803 37.208C113.659 36.956 113.587 36.672 113.587 36.356C113.587 36.04 113.653 35.758 113.785 35.51C113.921 35.258 114.105 35.06 114.337 34.916C114.569 34.768 114.831 34.694 115.123 34.694C115.359 34.694 115.577 34.744 115.777 34.844C115.977 34.94 116.145 35.072 116.281 35.24V33.62C116.281 33.528 116.309 33.454 116.365 33.398C116.425 33.342 116.499 33.314 116.587 33.314C116.679 33.314 116.753 33.342 116.809 33.398C116.865 33.454 116.893 33.528 116.893 33.62V36.356C116.893 36.672 116.819 36.956 116.671 37.208C116.527 37.46 116.331 37.66 116.083 37.808C115.835 37.952 115.555 38.024 115.243 38.024ZM115.243 37.484C115.447 37.484 115.629 37.436 115.789 37.34C115.949 37.24 116.075 37.104 116.167 36.932C116.259 36.76 116.305 36.568 116.305 36.356C116.305 36.14 116.259 35.948 116.167 35.78C116.075 35.612 115.949 35.48 115.789 35.384C115.629 35.284 115.447 35.234 115.243 35.234C115.043 35.234 114.861 35.284 114.697 35.384C114.537 35.48 114.409 35.612 114.313 35.78C114.221 35.948 114.175 36.14 114.175 36.356C114.175 36.568 114.221 36.76 114.313 36.932C114.409 37.104 114.537 37.24 114.697 37.34C114.861 37.436 115.043 37.484 115.243 37.484ZM119.516 38.024C119.184 38.024 118.888 37.954 118.628 37.814C118.372 37.67 118.17 37.474 118.022 37.226C117.878 36.974 117.806 36.686 117.806 36.362C117.806 36.034 117.874 35.746 118.01 35.498C118.15 35.246 118.342 35.05 118.586 34.91C118.83 34.766 119.11 34.694 119.426 34.694C119.738 34.694 120.006 34.764 120.23 34.904C120.454 35.04 120.624 35.23 120.74 35.474C120.86 35.714 120.92 35.992 120.92 36.308C120.92 36.384 120.894 36.448 120.842 36.5C120.79 36.548 120.724 36.572 120.644 36.572H118.226V36.092H120.626L120.38 36.26C120.376 36.06 120.336 35.882 120.26 35.726C120.184 35.566 120.076 35.44 119.936 35.348C119.796 35.256 119.626 35.21 119.426 35.21C119.198 35.21 119.002 35.26 118.838 35.36C118.678 35.46 118.556 35.598 118.472 35.774C118.388 35.946 118.346 36.142 118.346 36.362C118.346 36.582 118.396 36.778 118.496 36.95C118.596 37.122 118.734 37.258 118.91 37.358C119.086 37.458 119.288 37.508 119.516 37.508C119.64 37.508 119.766 37.486 119.894 37.442C120.026 37.394 120.132 37.34 120.212 37.28C120.272 37.236 120.336 37.214 120.404 37.214C120.476 37.21 120.538 37.23 120.59 37.274C120.658 37.334 120.694 37.4 120.698 37.472C120.702 37.544 120.67 37.606 120.602 37.658C120.466 37.766 120.296 37.854 120.092 37.922C119.892 37.99 119.7 38.024 119.516 38.024ZM124.238 38C124.062 38 123.906 37.952 123.77 37.856C123.634 37.76 123.528 37.63 123.452 37.466C123.376 37.298 123.338 37.106 123.338 36.89V33.614C123.338 33.526 123.366 33.454 123.422 33.398C123.478 33.342 123.55 33.314 123.638 33.314C123.726 33.314 123.798 33.342 123.854 33.398C123.91 33.454 123.938 33.526 123.938 33.614V36.89C123.938 37.038 123.966 37.16 124.022 37.256C124.078 37.352 124.15 37.4 124.238 37.4H124.388C124.468 37.4 124.532 37.428 124.58 37.484C124.632 37.54 124.658 37.612 124.658 37.7C124.658 37.788 124.62 37.86 124.544 37.916C124.468 37.972 124.37 38 124.25 38H124.238ZM126.443 38.024C126.151 38.024 125.889 37.952 125.657 37.808C125.425 37.66 125.241 37.462 125.105 37.214C124.973 36.962 124.907 36.678 124.907 36.362C124.907 36.046 124.979 35.762 125.123 35.51C125.271 35.258 125.469 35.06 125.717 34.916C125.969 34.768 126.251 34.694 126.563 34.694C126.875 34.694 127.155 34.768 127.403 34.916C127.651 35.06 127.847 35.258 127.991 35.51C128.139 35.762 128.213 36.046 128.213 36.362H127.979C127.979 36.678 127.911 36.962 127.775 37.214C127.643 37.462 127.461 37.66 127.229 37.808C126.997 37.952 126.735 38.024 126.443 38.024ZM126.563 37.484C126.767 37.484 126.949 37.436 127.109 37.34C127.269 37.24 127.395 37.106 127.487 36.938C127.579 36.766 127.625 36.574 127.625 36.362C127.625 36.146 127.579 35.954 127.487 35.786C127.395 35.614 127.269 35.48 127.109 35.384C126.949 35.284 126.767 35.234 126.563 35.234C126.363 35.234 126.181 35.284 126.017 35.384C125.857 35.48 125.729 35.614 125.633 35.786C125.541 35.954 125.495 36.146 125.495 36.362C125.495 36.574 125.541 36.766 125.633 36.938C125.729 37.106 125.857 37.24 126.017 37.34C126.181 37.436 126.363 37.484 126.563 37.484ZM127.907 38.006C127.819 38.006 127.745 37.978 127.685 37.922C127.629 37.862 127.601 37.788 127.601 37.7V36.782L127.715 36.146L128.213 36.362V37.7C128.213 37.788 128.183 37.862 128.123 37.922C128.067 37.978 127.995 38.006 127.907 38.006ZM131.638 38C131.574 38 131.514 37.982 131.458 37.946C131.406 37.906 131.37 37.858 131.35 37.802L130.462 35.138C130.43 35.014 130.43 34.914 130.462 34.838C130.498 34.758 130.574 34.718 130.69 34.718C130.766 34.718 130.828 34.74 130.876 34.784C130.928 34.824 130.97 34.894 131.002 34.994L131.758 37.358H131.548L132.262 34.946C132.282 34.878 132.316 34.824 132.364 34.784C132.412 34.74 132.478 34.718 132.562 34.718C132.642 34.718 132.706 34.74 132.754 34.784C132.806 34.824 132.84 34.878 132.856 34.946L133.438 37.214H133.348L134.056 34.994C134.112 34.81 134.216 34.718 134.368 34.718C134.48 34.718 134.556 34.758 134.596 34.838C134.636 34.914 134.634 35.014 134.59 35.138L133.702 37.802C133.686 37.858 133.652 37.906 133.6 37.946C133.548 37.982 133.488 38 133.42 38C133.356 38 133.296 37.982 133.24 37.946C133.184 37.906 133.148 37.858 133.132 37.802L132.514 35.516H132.574L131.926 37.802C131.91 37.858 131.874 37.906 131.818 37.946C131.766 37.982 131.706 38 131.638 38ZM136.672 38.024C136.34 38.024 136.044 37.954 135.784 37.814C135.528 37.67 135.326 37.474 135.178 37.226C135.034 36.974 134.962 36.686 134.962 36.362C134.962 36.034 135.03 35.746 135.166 35.498C135.306 35.246 135.498 35.05 135.742 34.91C135.986 34.766 136.266 34.694 136.582 34.694C136.894 34.694 137.162 34.764 137.386 34.904C137.61 35.04 137.78 35.23 137.896 35.474C138.016 35.714 138.076 35.992 138.076 36.308C138.076 36.384 138.05 36.448 137.998 36.5C137.946 36.548 137.88 36.572 137.8 36.572H135.382V36.092H137.782L137.536 36.26C137.532 36.06 137.492 35.882 137.416 35.726C137.34 35.566 137.232 35.44 137.092 35.348C136.952 35.256 136.782 35.21 136.582 35.21C136.354 35.21 136.158 35.26 135.994 35.36C135.834 35.46 135.712 35.598 135.628 35.774C135.544 35.946 135.502 36.142 135.502 36.362C135.502 36.582 135.552 36.778 135.652 36.95C135.752 37.122 135.89 37.258 136.066 37.358C136.242 37.458 136.444 37.508 136.672 37.508C136.796 37.508 136.922 37.486 137.05 37.442C137.182 37.394 137.288 37.34 137.368 37.28C137.428 37.236 137.492 37.214 137.56 37.214C137.632 37.21 137.694 37.23 137.746 37.274C137.814 37.334 137.85 37.4 137.854 37.472C137.858 37.544 137.826 37.606 137.758 37.658C137.622 37.766 137.452 37.854 137.248 37.922C137.048 37.99 136.856 38.024 136.672 38.024ZM140.506 38.024C140.194 38.024 139.914 37.952 139.666 37.808C139.418 37.66 139.222 37.46 139.078 37.208C138.934 36.956 138.86 36.672 138.856 36.356V33.62C138.856 33.528 138.884 33.454 138.94 33.398C139 33.342 139.074 33.314 139.162 33.314C139.254 33.314 139.328 33.342 139.384 33.398C139.44 33.454 139.468 33.528 139.468 33.62V35.24C139.608 35.072 139.776 34.94 139.972 34.844C140.172 34.744 140.39 34.694 140.626 34.694C140.918 34.694 141.18 34.768 141.412 34.916C141.644 35.06 141.826 35.258 141.958 35.51C142.094 35.758 142.162 36.04 142.162 36.356C142.162 36.672 142.088 36.956 141.94 37.208C141.796 37.46 141.6 37.66 141.352 37.808C141.104 37.952 140.822 38.024 140.506 38.024ZM140.506 37.484C140.71 37.484 140.892 37.436 141.052 37.34C141.212 37.24 141.338 37.104 141.43 36.932C141.526 36.76 141.574 36.568 141.574 36.356C141.574 36.14 141.526 35.948 141.43 35.78C141.338 35.612 141.212 35.48 141.052 35.384C140.892 35.284 140.71 35.234 140.506 35.234C140.306 35.234 140.124 35.284 139.96 35.384C139.8 35.48 139.674 35.612 139.582 35.78C139.49 35.948 139.444 36.14 139.444 36.356C139.444 36.568 139.49 36.76 139.582 36.932C139.674 37.104 139.8 37.24 139.96 37.34C140.124 37.436 140.306 37.484 140.506 37.484ZM66.378 49.404C66.286 49.404 66.21 49.374 66.15 49.314C66.094 49.258 66.066 49.186 66.066 49.098V47.478C65.93 47.646 65.762 47.78 65.562 47.88C65.362 47.976 65.144 48.024 64.908 48.024C64.616 48.024 64.354 47.952 64.122 47.808C63.89 47.66 63.706 47.462 63.57 47.214C63.438 46.962 63.372 46.678 63.372 46.362C63.372 46.046 63.444 45.762 63.588 45.51C63.736 45.258 63.934 45.06 64.182 44.916C64.434 44.768 64.716 44.694 65.028 44.694C65.34 44.694 65.62 44.768 65.868 44.916C66.116 45.06 66.312 45.258 66.456 45.51C66.604 45.762 66.678 46.046 66.678 46.362V49.098C66.678 49.186 66.65 49.258 66.594 49.314C66.538 49.374 66.466 49.404 66.378 49.404ZM65.028 47.484C65.232 47.484 65.414 47.436 65.574 47.34C65.734 47.24 65.86 47.106 65.952 46.938C66.044 46.766 66.09 46.574 66.09 46.362C66.09 46.146 66.044 45.954 65.952 45.786C65.86 45.614 65.734 45.48 65.574 45.384C65.414 45.284 65.232 45.234 65.028 45.234C64.828 45.234 64.646 45.284 64.482 45.384C64.322 45.48 64.194 45.614 64.098 45.786C64.006 45.954 63.96 46.146 63.96 46.362C63.96 46.574 64.006 46.766 64.098 46.938C64.194 47.106 64.322 47.24 64.482 47.34C64.646 47.436 64.828 47.484 65.028 47.484ZM69.1388 48.03C68.8628 48.03 68.6148 47.972 68.3948 47.856C68.1788 47.736 68.0068 47.562 67.8788 47.334C67.7548 47.106 67.6928 46.826 67.6928 46.494V45.018C67.6928 44.93 67.7208 44.858 67.7768 44.802C67.8368 44.742 67.9108 44.712 67.9988 44.712C68.0868 44.712 68.1588 44.742 68.2148 44.802C68.2748 44.858 68.3048 44.93 68.3048 45.018V46.494C68.3048 46.718 68.3468 46.904 68.4308 47.052C68.5148 47.196 68.6288 47.304 68.7728 47.376C68.9168 47.444 69.0788 47.478 69.2588 47.478C69.4308 47.478 69.5828 47.444 69.7148 47.376C69.8508 47.308 69.9588 47.216 70.0388 47.1C70.1188 46.984 70.1588 46.854 70.1588 46.71H70.5368C70.5368 46.958 70.4748 47.182 70.3508 47.382C70.2308 47.582 70.0648 47.74 69.8528 47.856C69.6448 47.972 69.4068 48.03 69.1388 48.03ZM70.4648 48C70.3768 48 70.3028 47.972 70.2428 47.916C70.1868 47.856 70.1588 47.782 70.1588 47.694V45.018C70.1588 44.926 70.1868 44.852 70.2428 44.796C70.3028 44.74 70.3768 44.712 70.4648 44.712C70.5568 44.712 70.6308 44.74 70.6868 44.796C70.7428 44.852 70.7708 44.926 70.7708 45.018V47.694C70.7708 47.782 70.7428 47.856 70.6868 47.916C70.6308 47.972 70.5568 48 70.4648 48ZM72.2146 48C72.1266 48 72.0526 47.972 71.9926 47.916C71.9366 47.856 71.9086 47.782 71.9086 47.694V45.024C71.9086 44.932 71.9366 44.858 71.9926 44.802C72.0526 44.746 72.1266 44.718 72.2146 44.718C72.3066 44.718 72.3806 44.746 72.4366 44.802C72.4926 44.858 72.5206 44.932 72.5206 45.024V47.694C72.5206 47.782 72.4926 47.856 72.4366 47.916C72.3806 47.972 72.3066 48 72.2146 48ZM72.2146 44.184C72.1066 44.184 72.0126 44.146 71.9326 44.07C71.8566 43.99 71.8186 43.896 71.8186 43.788C71.8186 43.68 71.8566 43.588 71.9326 43.512C72.0126 43.432 72.1066 43.392 72.2146 43.392C72.3226 43.392 72.4146 43.432 72.4906 43.512C72.5706 43.588 72.6106 43.68 72.6106 43.788C72.6106 43.896 72.5706 43.99 72.4906 44.07C72.4146 44.146 72.3226 44.184 72.2146 44.184ZM74.8531 48.024C74.5731 48.024 74.3131 47.982 74.0731 47.898C73.8371 47.81 73.6531 47.7 73.5211 47.568C73.4611 47.504 73.4351 47.432 73.4431 47.352C73.4551 47.268 73.4951 47.2 73.5631 47.148C73.6431 47.084 73.7211 47.058 73.7971 47.07C73.8771 47.078 73.9451 47.112 74.0011 47.172C74.0691 47.248 74.1771 47.32 74.3251 47.388C74.4771 47.452 74.6451 47.484 74.8291 47.484C75.0611 47.484 75.2371 47.446 75.3571 47.37C75.4811 47.294 75.5451 47.196 75.5491 47.076C75.5531 46.956 75.4951 46.852 75.3751 46.764C75.2591 46.676 75.0451 46.604 74.7331 46.548C74.3291 46.468 74.0351 46.348 73.8511 46.188C73.6711 46.028 73.5811 45.832 73.5811 45.6C73.5811 45.396 73.6411 45.228 73.7611 45.096C73.8811 44.96 74.0351 44.86 74.2231 44.796C74.4111 44.728 74.6071 44.694 74.8111 44.694C75.0751 44.694 75.3091 44.736 75.5131 44.82C75.7171 44.904 75.8791 45.02 75.9991 45.168C76.0551 45.232 76.0811 45.3 76.0771 45.372C76.0731 45.44 76.0391 45.498 75.9751 45.546C75.9111 45.59 75.8351 45.604 75.7471 45.588C75.6591 45.572 75.5851 45.536 75.5251 45.48C75.4251 45.384 75.3171 45.318 75.2011 45.282C75.0851 45.246 74.9511 45.228 74.7991 45.228C74.6231 45.228 74.4731 45.258 74.3491 45.318C74.2291 45.378 74.1691 45.466 74.1691 45.582C74.1691 45.654 74.1871 45.72 74.2231 45.78C74.2631 45.836 74.3391 45.888 74.4511 45.936C74.5631 45.98 74.7271 46.024 74.9431 46.068C75.2431 46.128 75.4791 46.204 75.6511 46.296C75.8271 46.388 75.9531 46.496 76.0291 46.62C76.1051 46.74 76.1431 46.88 76.1431 47.04C76.1431 47.224 76.0931 47.39 75.9931 47.538C75.8971 47.686 75.7531 47.804 75.5611 47.892C75.3731 47.98 75.1371 48.024 74.8531 48.024ZM77.283 48C77.195 48 77.121 47.972 77.061 47.916C77.005 47.856 76.977 47.782 76.977 47.694V45.024C76.977 44.932 77.005 44.858 77.061 44.802C77.121 44.746 77.195 44.718 77.283 44.718C77.375 44.718 77.449 44.746 77.505 44.802C77.561 44.858 77.589 44.932 77.589 45.024V47.694C77.589 47.782 77.561 47.856 77.505 47.916C77.449 47.972 77.375 48 77.283 48ZM77.283 44.184C77.175 44.184 77.081 44.146 77.001 44.07C76.925 43.99 76.887 43.896 76.887 43.788C76.887 43.68 76.925 43.588 77.001 43.512C77.081 43.432 77.175 43.392 77.283 43.392C77.391 43.392 77.483 43.432 77.559 43.512C77.639 43.588 77.679 43.68 77.679 43.788C77.679 43.896 77.639 43.99 77.559 44.07C77.483 44.146 77.391 44.184 77.283 44.184ZM80.2695 48.024C79.9375 48.024 79.6415 47.954 79.3815 47.814C79.1255 47.67 78.9235 47.474 78.7755 47.226C78.6315 46.974 78.5595 46.686 78.5595 46.362C78.5595 46.034 78.6275 45.746 78.7635 45.498C78.9035 45.246 79.0955 45.05 79.3395 44.91C79.5835 44.766 79.8635 44.694 80.1795 44.694C80.4915 44.694 80.7595 44.764 80.9835 44.904C81.2075 45.04 81.3775 45.23 81.4935 45.474C81.6135 45.714 81.6735 45.992 81.6735 46.308C81.6735 46.384 81.6475 46.448 81.5955 46.5C81.5435 46.548 81.4775 46.572 81.3975 46.572H78.9795V46.092H81.3795L81.1335 46.26C81.1295 46.06 81.0895 45.882 81.0135 45.726C80.9375 45.566 80.8295 45.44 80.6895 45.348C80.5495 45.256 80.3795 45.21 80.1795 45.21C79.9515 45.21 79.7555 45.26 79.5915 45.36C79.4315 45.46 79.3095 45.598 79.2255 45.774C79.1415 45.946 79.0995 46.142 79.0995 46.362C79.0995 46.582 79.1495 46.778 79.2495 46.95C79.3495 47.122 79.4875 47.258 79.6635 47.358C79.8395 47.458 80.0415 47.508 80.2695 47.508C80.3935 47.508 80.5195 47.486 80.6475 47.442C80.7795 47.394 80.8855 47.34 80.9655 47.28C81.0255 47.236 81.0895 47.214 81.1575 47.214C81.2295 47.21 81.2915 47.23 81.3435 47.274C81.4115 47.334 81.4475 47.4 81.4515 47.472C81.4555 47.544 81.4235 47.606 81.3555 47.658C81.2195 47.766 81.0495 47.854 80.8455 47.922C80.6455 47.99 80.4535 48.024 80.2695 48.024ZM82.7481 45.948C82.7481 45.708 82.8061 45.494 82.9221 45.306C83.0421 45.114 83.2021 44.962 83.4021 44.85C83.6021 44.738 83.8221 44.682 84.0621 44.682C84.3021 44.682 84.4801 44.722 84.5961 44.802C84.7161 44.878 84.7621 44.97 84.7341 45.078C84.7221 45.134 84.6981 45.178 84.6621 45.21C84.6301 45.238 84.5921 45.256 84.5481 45.264C84.5041 45.272 84.4561 45.27 84.4041 45.258C84.1481 45.206 83.9181 45.202 83.7141 45.246C83.5101 45.29 83.3481 45.372 83.2281 45.492C83.1121 45.612 83.0541 45.764 83.0541 45.948H82.7481ZM82.7541 48C82.6581 48 82.5841 47.976 82.5321 47.928C82.4801 47.876 82.4541 47.8 82.4541 47.7V45.018C82.4541 44.922 82.4801 44.848 82.5321 44.796C82.5841 44.744 82.6581 44.718 82.7541 44.718C82.8541 44.718 82.9281 44.744 82.9761 44.796C83.0281 44.844 83.0541 44.918 83.0541 45.018V47.7C83.0541 47.796 83.0281 47.87 82.9761 47.922C82.9281 47.974 82.8541 48 82.7541 48ZM86.4998 48.024C86.2078 48.024 85.9458 47.952 85.7138 47.808C85.4818 47.66 85.2978 47.462 85.1618 47.214C85.0298 46.962 84.9638 46.678 84.9638 46.362C84.9638 46.046 85.0358 45.762 85.1798 45.51C85.3278 45.258 85.5258 45.06 85.7738 44.916C86.0258 44.768 86.3078 44.694 86.6198 44.694C86.9318 44.694 87.2118 44.768 87.4598 44.916C87.7078 45.06 87.9038 45.258 88.0478 45.51C88.1958 45.762 88.2698 46.046 88.2698 46.362H88.0358C88.0358 46.678 87.9678 46.962 87.8318 47.214C87.6998 47.462 87.5178 47.66 87.2858 47.808C87.0538 47.952 86.7918 48.024 86.4998 48.024ZM86.6198 47.484C86.8238 47.484 87.0058 47.436 87.1658 47.34C87.3258 47.24 87.4518 47.106 87.5438 46.938C87.6358 46.766 87.6818 46.574 87.6818 46.362C87.6818 46.146 87.6358 45.954 87.5438 45.786C87.4518 45.614 87.3258 45.48 87.1658 45.384C87.0058 45.284 86.8238 45.234 86.6198 45.234C86.4198 45.234 86.2378 45.284 86.0738 45.384C85.9138 45.48 85.7858 45.614 85.6898 45.786C85.5978 45.954 85.5518 46.146 85.5518 46.362C85.5518 46.574 85.5978 46.766 85.6898 46.938C85.7858 47.106 85.9138 47.24 86.0738 47.34C86.2378 47.436 86.4198 47.484 86.6198 47.484ZM87.9638 48.006C87.8758 48.006 87.8018 47.978 87.7418 47.922C87.6858 47.862 87.6578 47.788 87.6578 47.7V46.782L87.7718 46.146L88.2698 46.362V47.7C88.2698 47.788 88.2398 47.862 88.1798 47.922C88.1238 47.978 88.0518 48.006 87.9638 48.006ZM92.3064 48.024C92.0144 48.024 91.7524 47.952 91.5204 47.808C91.2884 47.66 91.1044 47.462 90.9684 47.214C90.8364 46.962 90.7704 46.678 90.7704 46.362C90.7704 46.046 90.8424 45.762 90.9864 45.51C91.1344 45.258 91.3324 45.06 91.5804 44.916C91.8324 44.768 92.1144 44.694 92.4264 44.694C92.7384 44.694 93.0184 44.768 93.2664 44.916C93.5144 45.06 93.7104 45.258 93.8544 45.51C94.0024 45.762 94.0764 46.046 94.0764 46.362H93.8424C93.8424 46.678 93.7744 46.962 93.6384 47.214C93.5064 47.462 93.3244 47.66 93.0924 47.808C92.8604 47.952 92.5984 48.024 92.3064 48.024ZM92.4264 47.484C92.6304 47.484 92.8124 47.436 92.9724 47.34C93.1324 47.24 93.2584 47.106 93.3504 46.938C93.4424 46.766 93.4884 46.574 93.4884 46.362C93.4884 46.146 93.4424 45.954 93.3504 45.786C93.2584 45.614 93.1324 45.48 92.9724 45.384C92.8124 45.284 92.6304 45.234 92.4264 45.234C92.2264 45.234 92.0444 45.284 91.8804 45.384C91.7204 45.48 91.5924 45.614 91.4964 45.786C91.4044 45.954 91.3584 46.146 91.3584 46.362C91.3584 46.574 91.4044 46.766 91.4964 46.938C91.5924 47.106 91.7204 47.24 91.8804 47.34C92.0444 47.436 92.2264 47.484 92.4264 47.484ZM93.7704 48.006C93.6824 48.006 93.6084 47.978 93.5484 47.922C93.4924 47.862 93.4644 47.788 93.4644 47.7V46.782L93.5784 46.146L94.0764 46.362V47.7C94.0764 47.788 94.0464 47.862 93.9864 47.922C93.9304 47.978 93.8584 48.006 93.7704 48.006ZM96.3553 48.024C96.0553 48.024 95.7893 47.954 95.5573 47.814C95.3293 47.67 95.1493 47.474 95.0173 47.226C94.8853 46.974 94.8193 46.686 94.8193 46.362C94.8193 46.034 94.8893 45.746 95.0293 45.498C95.1733 45.246 95.3693 45.05 95.6173 44.91C95.8653 44.766 96.1513 44.694 96.4753 44.694C96.7953 44.694 97.0793 44.766 97.3273 44.91C97.5753 45.05 97.7693 45.246 97.9093 45.498C98.0533 45.746 98.1253 46.034 98.1253 46.362H97.7713C97.7713 46.686 97.7093 46.974 97.5853 47.226C97.4653 47.474 97.2993 47.67 97.0873 47.814C96.8753 47.954 96.6313 48.024 96.3553 48.024ZM96.4633 49.362C96.1793 49.362 95.9133 49.306 95.6653 49.194C95.4173 49.082 95.2073 48.918 95.0353 48.702C94.9833 48.634 94.9633 48.564 94.9753 48.492C94.9913 48.42 95.0313 48.362 95.0953 48.318C95.1673 48.27 95.2413 48.254 95.3173 48.27C95.3973 48.286 95.4613 48.326 95.5093 48.39C95.6173 48.526 95.7533 48.632 95.9173 48.708C96.0813 48.784 96.2673 48.822 96.4753 48.822C96.6673 48.822 96.8433 48.776 97.0033 48.684C97.1673 48.592 97.2973 48.456 97.3933 48.276C97.4893 48.096 97.5373 47.876 97.5373 47.616V46.764L97.7353 46.236L98.1253 46.362V47.658C98.1253 47.974 98.0553 48.26 97.9153 48.516C97.7753 48.776 97.5793 48.982 97.3273 49.134C97.0793 49.286 96.7913 49.362 96.4633 49.362ZM96.4753 47.484C96.6833 47.484 96.8673 47.436 97.0273 47.34C97.1873 47.244 97.3113 47.112 97.3993 46.944C97.4913 46.776 97.5373 46.582 97.5373 46.362C97.5373 46.142 97.4913 45.948 97.3993 45.78C97.3113 45.608 97.1873 45.474 97.0273 45.378C96.8673 45.282 96.6833 45.234 96.4753 45.234C96.2673 45.234 96.0833 45.282 95.9233 45.378C95.7633 45.474 95.6373 45.608 95.5453 45.78C95.4533 45.948 95.4073 46.142 95.4073 46.362C95.4073 46.582 95.4533 46.776 95.5453 46.944C95.6373 47.112 95.7633 47.244 95.9233 47.34C96.0833 47.436 96.2673 47.484 96.4753 47.484ZM100.578 48.024C100.246 48.024 99.9501 47.954 99.6901 47.814C99.4341 47.67 99.2321 47.474 99.0841 47.226C98.9401 46.974 98.8681 46.686 98.8681 46.362C98.8681 46.034 98.9361 45.746 99.0721 45.498C99.2121 45.246 99.4041 45.05 99.6481 44.91C99.8921 44.766 100.172 44.694 100.488 44.694C100.8 44.694 101.068 44.764 101.292 44.904C101.516 45.04 101.686 45.23 101.802 45.474C101.922 45.714 101.982 45.992 101.982 46.308C101.982 46.384 101.956 46.448 101.904 46.5C101.852 46.548 101.786 46.572 101.706 46.572H99.2881V46.092H101.688L101.442 46.26C101.438 46.06 101.398 45.882 101.322 45.726C101.246 45.566 101.138 45.44 100.998 45.348C100.858 45.256 100.688 45.21 100.488 45.21C100.26 45.21 100.064 45.26 99.9001 45.36C99.7401 45.46 99.6181 45.598 99.5341 45.774C99.4501 45.946 99.4081 46.142 99.4081 46.362C99.4081 46.582 99.4581 46.778 99.5581 46.95C99.6581 47.122 99.7961 47.258 99.9721 47.358C100.148 47.458 100.35 47.508 100.578 47.508C100.702 47.508 100.828 47.486 100.956 47.442C101.088 47.394 101.194 47.34 101.274 47.28C101.334 47.236 101.398 47.214 101.466 47.214C101.538 47.21 101.6 47.23 101.652 47.274C101.72 47.334 101.756 47.4 101.76 47.472C101.764 47.544 101.732 47.606 101.664 47.658C101.528 47.766 101.358 47.854 101.154 47.922C100.954 47.99 100.762 48.024 100.578 48.024ZM105.535 48.006C105.447 48.006 105.373 47.978 105.313 47.922C105.257 47.862 105.229 47.788 105.229 47.7V46.224C105.229 45.996 105.187 45.81 105.103 45.666C105.019 45.522 104.905 45.416 104.761 45.348C104.621 45.276 104.459 45.24 104.275 45.24C104.107 45.24 103.955 45.274 103.819 45.342C103.683 45.41 103.575 45.502 103.495 45.618C103.415 45.73 103.375 45.86 103.375 46.008H102.997C102.997 45.756 103.057 45.532 103.177 45.336C103.301 45.136 103.469 44.978 103.681 44.862C103.893 44.746 104.131 44.688 104.395 44.688C104.671 44.688 104.917 44.748 105.133 44.868C105.353 44.984 105.525 45.156 105.649 45.384C105.777 45.612 105.841 45.892 105.841 46.224V47.7C105.841 47.788 105.811 47.862 105.751 47.922C105.695 47.978 105.623 48.006 105.535 48.006ZM103.069 48.006C102.981 48.006 102.907 47.978 102.847 47.922C102.791 47.862 102.763 47.788 102.763 47.7V45.024C102.763 44.932 102.791 44.858 102.847 44.802C102.907 44.746 102.981 44.718 103.069 44.718C103.161 44.718 103.235 44.746 103.291 44.802C103.347 44.858 103.375 44.932 103.375 45.024V47.7C103.375 47.788 103.347 47.862 103.291 47.922C103.235 47.978 103.161 48.006 103.069 48.006ZM108.341 48.024C108.029 48.024 107.747 47.952 107.495 47.808C107.247 47.66 107.049 47.46 106.901 47.208C106.757 46.956 106.685 46.672 106.685 46.356C106.685 46.04 106.751 45.758 106.883 45.51C107.019 45.258 107.203 45.06 107.435 44.916C107.667 44.768 107.929 44.694 108.221 44.694C108.457 44.694 108.675 44.744 108.875 44.844C109.075 44.94 109.243 45.072 109.379 45.24V43.62C109.379 43.528 109.407 43.454 109.463 43.398C109.523 43.342 109.597 43.314 109.685 43.314C109.777 43.314 109.851 43.342 109.907 43.398C109.963 43.454 109.991 43.528 109.991 43.62V46.356C109.991 46.672 109.917 46.956 109.769 47.208C109.625 47.46 109.429 47.66 109.181 47.808C108.933 47.952 108.653 48.024 108.341 48.024ZM108.341 47.484C108.545 47.484 108.727 47.436 108.887 47.34C109.047 47.24 109.173 47.104 109.265 46.932C109.357 46.76 109.403 46.568 109.403 46.356C109.403 46.14 109.357 45.948 109.265 45.78C109.173 45.612 109.047 45.48 108.887 45.384C108.727 45.284 108.545 45.234 108.341 45.234C108.141 45.234 107.959 45.284 107.795 45.384C107.635 45.48 107.507 45.612 107.411 45.78C107.319 45.948 107.273 46.14 107.273 46.356C107.273 46.568 107.319 46.76 107.411 46.932C107.507 47.104 107.635 47.24 107.795 47.34C107.959 47.436 108.141 47.484 108.341 47.484ZM112.439 48.024C112.147 48.024 111.885 47.952 111.653 47.808C111.421 47.66 111.237 47.462 111.101 47.214C110.969 46.962 110.903 46.678 110.903 46.362C110.903 46.046 110.975 45.762 111.119 45.51C111.267 45.258 111.465 45.06 111.713 44.916C111.965 44.768 112.247 44.694 112.559 44.694C112.871 44.694 113.151 44.768 113.399 44.916C113.647 45.06 113.843 45.258 113.987 45.51C114.135 45.762 114.209 46.046 114.209 46.362H113.975C113.975 46.678 113.907 46.962 113.771 47.214C113.639 47.462 113.457 47.66 113.225 47.808C112.993 47.952 112.731 48.024 112.439 48.024ZM112.559 47.484C112.763 47.484 112.945 47.436 113.105 47.34C113.265 47.24 113.391 47.106 113.483 46.938C113.575 46.766 113.621 46.574 113.621 46.362C113.621 46.146 113.575 45.954 113.483 45.786C113.391 45.614 113.265 45.48 113.105 45.384C112.945 45.284 112.763 45.234 112.559 45.234C112.359 45.234 112.177 45.284 112.013 45.384C111.853 45.48 111.725 45.614 111.629 45.786C111.537 45.954 111.491 46.146 111.491 46.362C111.491 46.574 111.537 46.766 111.629 46.938C111.725 47.106 111.853 47.24 112.013 47.34C112.177 47.436 112.359 47.484 112.559 47.484ZM113.903 48.006C113.815 48.006 113.741 47.978 113.681 47.922C113.625 47.862 113.597 47.788 113.597 47.7V46.782L113.711 46.146L114.209 46.362V47.7C114.209 47.788 114.179 47.862 114.119 47.922C114.063 47.978 113.991 48.006 113.903 48.006ZM115.414 45.948C115.414 45.708 115.472 45.494 115.588 45.306C115.708 45.114 115.868 44.962 116.068 44.85C116.268 44.738 116.488 44.682 116.728 44.682C116.968 44.682 117.146 44.722 117.262 44.802C117.382 44.878 117.428 44.97 117.4 45.078C117.388 45.134 117.364 45.178 117.328 45.21C117.296 45.238 117.258 45.256 117.214 45.264C117.17 45.272 117.122 45.27 117.07 45.258C116.814 45.206 116.584 45.202 116.38 45.246C116.176 45.29 116.014 45.372 115.894 45.492C115.778 45.612 115.72 45.764 115.72 45.948H115.414ZM115.42 48C115.324 48 115.25 47.976 115.198 47.928C115.146 47.876 115.12 47.8 115.12 47.7V45.018C115.12 44.922 115.146 44.848 115.198 44.796C115.25 44.744 115.324 44.718 115.42 44.718C115.52 44.718 115.594 44.744 115.642 44.796C115.694 44.844 115.72 44.918 115.72 45.018V47.7C115.72 47.796 115.694 47.87 115.642 47.922C115.594 47.974 115.52 48 115.42 48ZM121.176 48.03C120.9 48.03 120.652 47.972 120.432 47.856C120.216 47.736 120.044 47.562 119.916 47.334C119.792 47.106 119.73 46.826 119.73 46.494V45.018C119.73 44.93 119.758 44.858 119.814 44.802C119.874 44.742 119.948 44.712 120.036 44.712C120.124 44.712 120.196 44.742 120.252 44.802C120.312 44.858 120.342 44.93 120.342 45.018V46.494C120.342 46.718 120.384 46.904 120.468 47.052C120.552 47.196 120.666 47.304 120.81 47.376C120.954 47.444 121.116 47.478 121.296 47.478C121.468 47.478 121.62 47.444 121.752 47.376C121.888 47.308 121.996 47.216 122.076 47.1C122.156 46.984 122.196 46.854 122.196 46.71H122.574C122.574 46.958 122.512 47.182 122.388 47.382C122.268 47.582 122.102 47.74 121.89 47.856C121.682 47.972 121.444 48.03 121.176 48.03ZM122.502 48C122.414 48 122.34 47.972 122.28 47.916C122.224 47.856 122.196 47.782 122.196 47.694V45.018C122.196 44.926 122.224 44.852 122.28 44.796C122.34 44.74 122.414 44.712 122.502 44.712C122.594 44.712 122.668 44.74 122.724 44.796C122.78 44.852 122.808 44.926 122.808 45.018V47.694C122.808 47.782 122.78 47.856 122.724 47.916C122.668 47.972 122.594 48 122.502 48ZM126.658 48.006C126.57 48.006 126.496 47.978 126.436 47.922C126.38 47.862 126.352 47.788 126.352 47.7V46.224C126.352 45.996 126.31 45.81 126.226 45.666C126.142 45.522 126.028 45.416 125.884 45.348C125.744 45.276 125.582 45.24 125.398 45.24C125.23 45.24 125.078 45.274 124.942 45.342C124.806 45.41 124.698 45.502 124.618 45.618C124.538 45.73 124.498 45.86 124.498 46.008H124.12C124.12 45.756 124.18 45.532 124.3 45.336C124.424 45.136 124.592 44.978 124.804 44.862C125.016 44.746 125.254 44.688 125.518 44.688C125.794 44.688 126.04 44.748 126.256 44.868C126.476 44.984 126.648 45.156 126.772 45.384C126.9 45.612 126.964 45.892 126.964 46.224V47.7C126.964 47.788 126.934 47.862 126.874 47.922C126.818 47.978 126.746 48.006 126.658 48.006ZM124.192 48.006C124.104 48.006 124.03 47.978 123.97 47.922C123.914 47.862 123.886 47.788 123.886 47.7V45.024C123.886 44.932 123.914 44.858 123.97 44.802C124.03 44.746 124.104 44.718 124.192 44.718C124.284 44.718 124.358 44.746 124.414 44.802C124.47 44.858 124.498 44.932 124.498 45.024V47.7C124.498 47.788 124.47 47.862 124.414 47.922C124.358 47.978 124.284 48.006 124.192 48.006ZM129.344 48.024C129.052 48.024 128.79 47.952 128.558 47.808C128.326 47.66 128.142 47.462 128.006 47.214C127.874 46.962 127.808 46.678 127.808 46.362C127.808 46.046 127.88 45.762 128.024 45.51C128.172 45.258 128.37 45.06 128.618 44.916C128.87 44.768 129.152 44.694 129.464 44.694C129.776 44.694 130.056 44.768 130.304 44.916C130.552 45.06 130.748 45.258 130.892 45.51C131.04 45.762 131.114 46.046 131.114 46.362H130.88C130.88 46.678 130.812 46.962 130.676 47.214C130.544 47.462 130.362 47.66 130.13 47.808C129.898 47.952 129.636 48.024 129.344 48.024ZM129.464 47.484C129.668 47.484 129.85 47.436 130.01 47.34C130.17 47.24 130.296 47.106 130.388 46.938C130.48 46.766 130.526 46.574 130.526 46.362C130.526 46.146 130.48 45.954 130.388 45.786C130.296 45.614 130.17 45.48 130.01 45.384C129.85 45.284 129.668 45.234 129.464 45.234C129.264 45.234 129.082 45.284 128.918 45.384C128.758 45.48 128.63 45.614 128.534 45.786C128.442 45.954 128.396 46.146 128.396 46.362C128.396 46.574 128.442 46.766 128.534 46.938C128.63 47.106 128.758 47.24 128.918 47.34C129.082 47.436 129.264 47.484 129.464 47.484ZM130.808 48.006C130.72 48.006 130.646 47.978 130.586 47.922C130.53 47.862 130.502 47.788 130.502 47.7V46.782L130.616 46.146L131.114 46.362V47.7C131.114 47.788 131.084 47.862 131.024 47.922C130.968 47.978 130.896 48.006 130.808 48.006ZM135.27 48.024C134.95 48.024 134.664 47.952 134.412 47.808C134.164 47.66 133.968 47.462 133.824 47.214C133.684 46.962 133.614 46.678 133.614 46.362C133.614 46.038 133.684 45.75 133.824 45.498C133.964 45.246 134.156 45.05 134.4 44.91C134.644 44.766 134.924 44.694 135.24 44.694C135.476 44.694 135.692 44.74 135.888 44.832C136.084 44.92 136.26 45.054 136.416 45.234C136.472 45.298 136.492 45.364 136.476 45.432C136.46 45.5 136.416 45.56 136.344 45.612C136.288 45.652 136.226 45.666 136.158 45.654C136.09 45.638 136.028 45.602 135.972 45.546C135.776 45.338 135.532 45.234 135.24 45.234C135.036 45.234 134.856 45.282 134.7 45.378C134.544 45.47 134.422 45.6 134.334 45.768C134.246 45.936 134.202 46.134 134.202 46.362C134.202 46.578 134.246 46.77 134.334 46.938C134.426 47.106 134.552 47.24 134.712 47.34C134.872 47.436 135.058 47.484 135.27 47.484C135.41 47.484 135.532 47.468 135.636 47.436C135.744 47.4 135.842 47.346 135.93 47.274C135.994 47.222 136.06 47.194 136.128 47.19C136.196 47.182 136.256 47.2 136.308 47.244C136.376 47.3 136.414 47.364 136.422 47.436C136.43 47.504 136.406 47.566 136.35 47.622C136.062 47.89 135.702 48.024 135.27 48.024ZM137.752 48C137.664 48 137.59 47.972 137.53 47.916C137.474 47.856 137.446 47.782 137.446 47.694V45.024C137.446 44.932 137.474 44.858 137.53 44.802C137.59 44.746 137.664 44.718 137.752 44.718C137.844 44.718 137.918 44.746 137.974 44.802C138.03 44.858 138.058 44.932 138.058 45.024V47.694C138.058 47.782 138.03 47.856 137.974 47.916C137.918 47.972 137.844 48 137.752 48ZM137.752 44.184C137.644 44.184 137.55 44.146 137.47 44.07C137.394 43.99 137.356 43.896 137.356 43.788C137.356 43.68 137.394 43.588 137.47 43.512C137.55 43.432 137.644 43.392 137.752 43.392C137.86 43.392 137.952 43.432 138.028 43.512C138.108 43.588 138.148 43.68 138.148 43.788C138.148 43.896 138.108 43.99 138.028 44.07C137.952 44.146 137.86 44.184 137.752 44.184ZM140.39 48C140.19 48 140.01 47.95 139.85 47.85C139.69 47.746 139.564 47.606 139.472 47.43C139.38 47.254 139.334 47.056 139.334 46.836V43.974C139.334 43.886 139.362 43.814 139.418 43.758C139.474 43.702 139.546 43.674 139.634 43.674C139.722 43.674 139.794 43.702 139.85 43.758C139.906 43.814 139.934 43.886 139.934 43.974V46.836C139.934 46.996 139.978 47.13 140.066 47.238C140.154 47.346 140.262 47.4 140.39 47.4H140.594C140.666 47.4 140.726 47.428 140.774 47.484C140.826 47.54 140.852 47.612 140.852 47.7C140.852 47.788 140.818 47.86 140.75 47.916C140.686 47.972 140.602 48 140.498 48H140.39ZM139.058 45.354C138.974 45.354 138.906 45.33 138.854 45.282C138.802 45.234 138.776 45.174 138.776 45.102C138.776 45.022 138.802 44.958 138.854 44.91C138.906 44.862 138.974 44.838 139.058 44.838H140.444C140.528 44.838 140.596 44.862 140.648 44.91C140.7 44.958 140.726 45.022 140.726 45.102C140.726 45.174 140.7 45.234 140.648 45.282C140.596 45.33 140.528 45.354 140.444 45.354H139.058ZM142.972 48.024C142.68 48.024 142.418 47.952 142.186 47.808C141.954 47.66 141.77 47.462 141.634 47.214C141.502 46.962 141.436 46.678 141.436 46.362C141.436 46.046 141.508 45.762 141.652 45.51C141.8 45.258 141.998 45.06 142.246 44.916C142.498 44.768 142.78 44.694 143.092 44.694C143.404 44.694 143.684 44.768 143.932 44.916C144.18 45.06 144.376 45.258 144.52 45.51C144.668 45.762 144.742 46.046 144.742 46.362H144.508C144.508 46.678 144.44 46.962 144.304 47.214C144.172 47.462 143.99 47.66 143.758 47.808C143.526 47.952 143.264 48.024 142.972 48.024ZM143.092 47.484C143.296 47.484 143.478 47.436 143.638 47.34C143.798 47.24 143.924 47.106 144.016 46.938C144.108 46.766 144.154 46.574 144.154 46.362C144.154 46.146 144.108 45.954 144.016 45.786C143.924 45.614 143.798 45.48 143.638 45.384C143.478 45.284 143.296 45.234 143.092 45.234C142.892 45.234 142.71 45.284 142.546 45.384C142.386 45.48 142.258 45.614 142.162 45.786C142.07 45.954 142.024 46.146 142.024 46.362C142.024 46.574 142.07 46.766 142.162 46.938C142.258 47.106 142.386 47.24 142.546 47.34C142.71 47.436 142.892 47.484 143.092 47.484ZM144.436 48.006C144.348 48.006 144.274 47.978 144.214 47.922C144.158 47.862 144.13 47.788 144.13 47.7V46.782L144.244 46.146L144.742 46.362V47.7C144.742 47.788 144.712 47.862 144.652 47.922C144.596 47.978 144.524 48.006 144.436 48.006ZM65.028 58.024C64.704 58.024 64.418 57.954 64.17 57.814C63.922 57.67 63.726 57.474 63.582 57.226C63.442 56.974 63.372 56.686 63.372 56.362C63.372 56.034 63.442 55.746 63.582 55.498C63.726 55.246 63.922 55.05 64.17 54.91C64.418 54.766 64.704 54.694 65.028 54.694C65.348 54.694 65.632 54.766 65.88 54.91C66.128 55.05 66.322 55.246 66.462 55.498C66.606 55.746 66.678 56.034 66.678 56.362C66.678 56.686 66.608 56.974 66.468 57.226C66.328 57.474 66.134 57.67 65.886 57.814C65.638 57.954 65.352 58.024 65.028 58.024ZM65.028 57.484C65.236 57.484 65.42 57.436 65.58 57.34C65.74 57.244 65.864 57.112 65.952 56.944C66.044 56.776 66.09 56.582 66.09 56.362C66.09 56.142 66.044 55.948 65.952 55.78C65.864 55.608 65.74 55.474 65.58 55.378C65.42 55.282 65.236 55.234 65.028 55.234C64.82 55.234 64.636 55.282 64.476 55.378C64.316 55.474 64.19 55.608 64.098 55.78C64.006 55.948 63.96 56.142 63.96 56.362C63.96 56.582 64.006 56.776 64.098 56.944C64.19 57.112 64.316 57.244 64.476 57.34C64.636 57.436 64.82 57.484 65.028 57.484ZM69.0768 58.024C68.7648 58.024 68.4828 57.952 68.2308 57.808C67.9828 57.66 67.7848 57.46 67.6368 57.208C67.4928 56.956 67.4208 56.672 67.4208 56.356C67.4208 56.04 67.4868 55.758 67.6188 55.51C67.7548 55.258 67.9388 55.06 68.1708 54.916C68.4028 54.768 68.6648 54.694 68.9568 54.694C69.1928 54.694 69.4108 54.744 69.6108 54.844C69.8108 54.94 69.9788 55.072 70.1148 55.24V53.62C70.1148 53.528 70.1428 53.454 70.1988 53.398C70.2588 53.342 70.3328 53.314 70.4208 53.314C70.5128 53.314 70.5868 53.342 70.6428 53.398C70.6988 53.454 70.7268 53.528 70.7268 53.62V56.356C70.7268 56.672 70.6528 56.956 70.5048 57.208C70.3608 57.46 70.1648 57.66 69.9168 57.808C69.6688 57.952 69.3888 58.024 69.0768 58.024ZM69.0768 57.484C69.2808 57.484 69.4628 57.436 69.6228 57.34C69.7828 57.24 69.9088 57.104 70.0008 56.932C70.0928 56.76 70.1388 56.568 70.1388 56.356C70.1388 56.14 70.0928 55.948 70.0008 55.78C69.9088 55.612 69.7828 55.48 69.6228 55.384C69.4628 55.284 69.2808 55.234 69.0768 55.234C68.8768 55.234 68.6948 55.284 68.5308 55.384C68.3708 55.48 68.2428 55.612 68.1468 55.78C68.0548 55.948 68.0088 56.14 68.0088 56.356C68.0088 56.568 68.0548 56.76 68.1468 56.932C68.2428 57.104 68.3708 57.24 68.5308 57.34C68.6948 57.436 68.8768 57.484 69.0768 57.484ZM73.2956 58.024C72.9716 58.024 72.6856 57.954 72.4376 57.814C72.1896 57.67 71.9936 57.474 71.8496 57.226C71.7096 56.974 71.6396 56.686 71.6396 56.362C71.6396 56.034 71.7096 55.746 71.8496 55.498C71.9936 55.246 72.1896 55.05 72.4376 54.91C72.6856 54.766 72.9716 54.694 73.2956 54.694C73.6156 54.694 73.8996 54.766 74.1476 54.91C74.3956 55.05 74.5896 55.246 74.7296 55.498C74.8736 55.746 74.9456 56.034 74.9456 56.362C74.9456 56.686 74.8756 56.974 74.7356 57.226C74.5956 57.474 74.4016 57.67 74.1536 57.814C73.9056 57.954 73.6196 58.024 73.2956 58.024ZM73.2956 57.484C73.5036 57.484 73.6876 57.436 73.8476 57.34C74.0076 57.244 74.1316 57.112 74.2196 56.944C74.3116 56.776 74.3576 56.582 74.3576 56.362C74.3576 56.142 74.3116 55.948 74.2196 55.78C74.1316 55.608 74.0076 55.474 73.8476 55.378C73.6876 55.282 73.5036 55.234 73.2956 55.234C73.0876 55.234 72.9036 55.282 72.7436 55.378C72.5836 55.474 72.4576 55.608 72.3656 55.78C72.2736 55.948 72.2276 56.142 72.2276 56.362C72.2276 56.582 72.2736 56.776 72.3656 56.944C72.4576 57.112 72.5836 57.244 72.7436 57.34C72.9036 57.436 73.0876 57.484 73.2956 57.484ZM78.6284 58.006C78.5404 58.006 78.4664 57.978 78.4064 57.922C78.3504 57.862 78.3224 57.788 78.3224 57.7V56.224C78.3224 55.996 78.2804 55.81 78.1964 55.666C78.1124 55.522 77.9984 55.416 77.8544 55.348C77.7144 55.276 77.5524 55.24 77.3684 55.24C77.2004 55.24 77.0484 55.274 76.9124 55.342C76.7764 55.41 76.6684 55.502 76.5884 55.618C76.5084 55.73 76.4684 55.86 76.4684 56.008H76.0904C76.0904 55.756 76.1504 55.532 76.2704 55.336C76.3944 55.136 76.5624 54.978 76.7744 54.862C76.9864 54.746 77.2244 54.688 77.4884 54.688C77.7644 54.688 78.0104 54.748 78.2264 54.868C78.4464 54.984 78.6184 55.156 78.7424 55.384C78.8704 55.612 78.9344 55.892 78.9344 56.224V57.7C78.9344 57.788 78.9044 57.862 78.8444 57.922C78.7884 57.978 78.7164 58.006 78.6284 58.006ZM76.1624 58.006C76.0744 58.006 76.0004 57.978 75.9404 57.922C75.8844 57.862 75.8564 57.788 75.8564 57.7V55.024C75.8564 54.932 75.8844 54.858 75.9404 54.802C76.0004 54.746 76.0744 54.718 76.1624 54.718C76.2544 54.718 76.3284 54.746 76.3844 54.802C76.4404 54.858 76.4684 54.932 76.4684 55.024V57.7C76.4684 57.788 76.4404 57.862 76.3844 57.922C76.3284 57.978 76.2544 58.006 76.1624 58.006ZM81.1403 58C80.9403 58 80.7603 57.95 80.6003 57.85C80.4403 57.746 80.3143 57.606 80.2223 57.43C80.1303 57.254 80.0843 57.056 80.0843 56.836V53.974C80.0843 53.886 80.1123 53.814 80.1683 53.758C80.2243 53.702 80.2963 53.674 80.3843 53.674C80.4723 53.674 80.5443 53.702 80.6003 53.758C80.6563 53.814 80.6843 53.886 80.6843 53.974V56.836C80.6843 56.996 80.7283 57.13 80.8163 57.238C80.9043 57.346 81.0123 57.4 81.1403 57.4H81.3443C81.4163 57.4 81.4763 57.428 81.5243 57.484C81.5763 57.54 81.6023 57.612 81.6023 57.7C81.6023 57.788 81.5683 57.86 81.5003 57.916C81.4363 57.972 81.3523 58 81.2483 58H81.1403ZM79.8083 55.354C79.7243 55.354 79.6563 55.33 79.6042 55.282C79.5523 55.234 79.5263 55.174 79.5263 55.102C79.5263 55.022 79.5523 54.958 79.6042 54.91C79.6563 54.862 79.7243 54.838 79.8083 54.838H81.1943C81.2783 54.838 81.3463 54.862 81.3983 54.91C81.4503 54.958 81.4763 55.022 81.4763 55.102C81.4763 55.174 81.4503 55.234 81.3983 55.282C81.3463 55.33 81.2783 55.354 81.1943 55.354H79.8083ZM83.8425 58.024C83.5185 58.024 83.2325 57.954 82.9845 57.814C82.7365 57.67 82.5405 57.474 82.3965 57.226C82.2565 56.974 82.1865 56.686 82.1865 56.362C82.1865 56.034 82.2565 55.746 82.3965 55.498C82.5405 55.246 82.7365 55.05 82.9845 54.91C83.2325 54.766 83.5185 54.694 83.8425 54.694C84.1625 54.694 84.4465 54.766 84.6945 54.91C84.9425 55.05 85.1365 55.246 85.2765 55.498C85.4205 55.746 85.4925 56.034 85.4925 56.362C85.4925 56.686 85.4225 56.974 85.2825 57.226C85.1425 57.474 84.9485 57.67 84.7005 57.814C84.4525 57.954 84.1665 58.024 83.8425 58.024ZM83.8425 57.484C84.0505 57.484 84.2345 57.436 84.3945 57.34C84.5545 57.244 84.6785 57.112 84.7665 56.944C84.8585 56.776 84.9045 56.582 84.9045 56.362C84.9045 56.142 84.8585 55.948 84.7665 55.78C84.6785 55.608 84.5545 55.474 84.3945 55.378C84.2345 55.282 84.0505 55.234 83.8425 55.234C83.6345 55.234 83.4505 55.282 83.2905 55.378C83.1305 55.474 83.0045 55.608 82.9125 55.78C82.8205 55.948 82.7745 56.142 82.7745 56.362C82.7745 56.582 82.8205 56.776 82.9125 56.944C83.0045 57.112 83.1305 57.244 83.2905 57.34C83.4505 57.436 83.6345 57.484 83.8425 57.484ZM87.1833 58C87.0073 58 86.8513 57.952 86.7153 57.856C86.5793 57.76 86.4733 57.63 86.3973 57.466C86.3213 57.298 86.2833 57.106 86.2833 56.89V53.614C86.2833 53.526 86.3113 53.454 86.3673 53.398C86.4233 53.342 86.4953 53.314 86.5833 53.314C86.6713 53.314 86.7433 53.342 86.7993 53.398C86.8553 53.454 86.8833 53.526 86.8833 53.614V56.89C86.8833 57.038 86.9113 57.16 86.9673 57.256C87.0233 57.352 87.0953 57.4 87.1833 57.4H87.3333C87.4133 57.4 87.4773 57.428 87.5253 57.484C87.5773 57.54 87.6033 57.612 87.6033 57.7C87.6033 57.788 87.5653 57.86 87.4893 57.916C87.4133 57.972 87.3153 58 87.1953 58H87.1833ZM89.5085 58.024C89.1845 58.024 88.8985 57.954 88.6505 57.814C88.4025 57.67 88.2065 57.474 88.0625 57.226C87.9225 56.974 87.8525 56.686 87.8525 56.362C87.8525 56.034 87.9225 55.746 88.0625 55.498C88.2065 55.246 88.4025 55.05 88.6505 54.91C88.8985 54.766 89.1845 54.694 89.5085 54.694C89.8285 54.694 90.1125 54.766 90.3605 54.91C90.6085 55.05 90.8025 55.246 90.9425 55.498C91.0865 55.746 91.1585 56.034 91.1585 56.362C91.1585 56.686 91.0885 56.974 90.9485 57.226C90.8085 57.474 90.6145 57.67 90.3665 57.814C90.1185 57.954 89.8325 58.024 89.5085 58.024ZM89.5085 57.484C89.7165 57.484 89.9005 57.436 90.0605 57.34C90.2205 57.244 90.3445 57.112 90.4325 56.944C90.5245 56.776 90.5705 56.582 90.5705 56.362C90.5705 56.142 90.5245 55.948 90.4325 55.78C90.3445 55.608 90.2205 55.474 90.0605 55.378C89.9005 55.282 89.7165 55.234 89.5085 55.234C89.3005 55.234 89.1165 55.282 88.9565 55.378C88.7965 55.474 88.6705 55.608 88.5785 55.78C88.4865 55.948 88.4405 56.142 88.4405 56.362C88.4405 56.582 88.4865 56.776 88.5785 56.944C88.6705 57.112 88.7965 57.244 88.9565 57.34C89.1165 57.436 89.3005 57.484 89.5085 57.484ZM93.4373 58.024C93.1373 58.024 92.8713 57.954 92.6393 57.814C92.4113 57.67 92.2313 57.474 92.0993 57.226C91.9673 56.974 91.9013 56.686 91.9013 56.362C91.9013 56.034 91.9713 55.746 92.1113 55.498C92.2553 55.246 92.4513 55.05 92.6993 54.91C92.9473 54.766 93.2333 54.694 93.5573 54.694C93.8773 54.694 94.1613 54.766 94.4093 54.91C94.6573 55.05 94.8513 55.246 94.9913 55.498C95.1353 55.746 95.2073 56.034 95.2073 56.362H94.8533C94.8533 56.686 94.7913 56.974 94.6673 57.226C94.5473 57.474 94.3813 57.67 94.1693 57.814C93.9573 57.954 93.7133 58.024 93.4373 58.024ZM93.5453 59.362C93.2613 59.362 92.9953 59.306 92.7473 59.194C92.4993 59.082 92.2893 58.918 92.1173 58.702C92.0653 58.634 92.0453 58.564 92.0573 58.492C92.0733 58.42 92.1133 58.362 92.1773 58.318C92.2493 58.27 92.3233 58.254 92.3993 58.27C92.4793 58.286 92.5433 58.326 92.5913 58.39C92.6993 58.526 92.8353 58.632 92.9993 58.708C93.1633 58.784 93.3493 58.822 93.5573 58.822C93.7493 58.822 93.9253 58.776 94.0853 58.684C94.2493 58.592 94.3793 58.456 94.4753 58.276C94.5713 58.096 94.6193 57.876 94.6193 57.616V56.764L94.8173 56.236L95.2073 56.362V57.658C95.2073 57.974 95.1373 58.26 94.9973 58.516C94.8573 58.776 94.6613 58.982 94.4093 59.134C94.1613 59.286 93.8733 59.362 93.5453 59.362ZM93.5573 57.484C93.7653 57.484 93.9493 57.436 94.1093 57.34C94.2693 57.244 94.3933 57.112 94.4813 56.944C94.5733 56.776 94.6193 56.582 94.6193 56.362C94.6193 56.142 94.5733 55.948 94.4813 55.78C94.3933 55.608 94.2693 55.474 94.1093 55.378C93.9493 55.282 93.7653 55.234 93.5573 55.234C93.3493 55.234 93.1653 55.282 93.0053 55.378C92.8453 55.474 92.7193 55.608 92.6273 55.78C92.5353 55.948 92.4893 56.142 92.4893 56.362C92.4893 56.582 92.5353 56.776 92.6273 56.944C92.7193 57.112 92.8453 57.244 93.0053 57.34C93.1653 57.436 93.3493 57.484 93.5573 57.484ZM96.4841 58C96.3961 58 96.3221 57.972 96.2621 57.916C96.2061 57.856 96.1781 57.782 96.1781 57.694V55.024C96.1781 54.932 96.2061 54.858 96.2621 54.802C96.3221 54.746 96.3961 54.718 96.4841 54.718C96.5761 54.718 96.6501 54.746 96.7061 54.802C96.7621 54.858 96.7901 54.932 96.7901 55.024V57.694C96.7901 57.782 96.7621 57.856 96.7061 57.916C96.6501 57.972 96.5761 58 96.4841 58ZM96.4841 54.184C96.3761 54.184 96.2821 54.146 96.2021 54.07C96.1261 53.99 96.0881 53.896 96.0881 53.788C96.0881 53.68 96.1261 53.588 96.2021 53.512C96.2821 53.432 96.3761 53.392 96.4841 53.392C96.5921 53.392 96.6841 53.432 96.7601 53.512C96.8401 53.588 96.8801 53.68 96.8801 53.788C96.8801 53.896 96.8401 53.99 96.7601 54.07C96.6841 54.146 96.5921 54.184 96.4841 54.184ZM99.4167 58.024C99.0967 58.024 98.8107 57.952 98.5587 57.808C98.3107 57.66 98.1147 57.462 97.9707 57.214C97.8307 56.962 97.7607 56.678 97.7607 56.362C97.7607 56.038 97.8307 55.75 97.9707 55.498C98.1107 55.246 98.3027 55.05 98.5467 54.91C98.7907 54.766 99.0707 54.694 99.3867 54.694C99.6227 54.694 99.8387 54.74 100.035 54.832C100.231 54.92 100.407 55.054 100.563 55.234C100.619 55.298 100.639 55.364 100.623 55.432C100.607 55.5 100.563 55.56 100.491 55.612C100.435 55.652 100.373 55.666 100.305 55.654C100.237 55.638 100.175 55.602 100.119 55.546C99.9227 55.338 99.6787 55.234 99.3867 55.234C99.1827 55.234 99.0027 55.282 98.8467 55.378C98.6907 55.47 98.5687 55.6 98.4807 55.768C98.3927 55.936 98.3487 56.134 98.3487 56.362C98.3487 56.578 98.3927 56.77 98.4807 56.938C98.5727 57.106 98.6987 57.24 98.8587 57.34C99.0187 57.436 99.2047 57.484 99.4167 57.484C99.5567 57.484 99.6787 57.468 99.7827 57.436C99.8907 57.4 99.9887 57.346 100.077 57.274C100.141 57.222 100.207 57.194 100.275 57.19C100.343 57.182 100.403 57.2 100.455 57.244C100.523 57.3 100.561 57.364 100.569 57.436C100.577 57.504 100.553 57.566 100.497 57.622C100.209 57.89 99.8487 58.024 99.4167 58.024ZM102.9 58.024C102.608 58.024 102.346 57.952 102.114 57.808C101.882 57.66 101.698 57.462 101.562 57.214C101.43 56.962 101.364 56.678 101.364 56.362C101.364 56.046 101.436 55.762 101.58 55.51C101.728 55.258 101.926 55.06 102.174 54.916C102.426 54.768 102.708 54.694 103.02 54.694C103.332 54.694 103.612 54.768 103.86 54.916C104.108 55.06 104.304 55.258 104.448 55.51C104.596 55.762 104.67 56.046 104.67 56.362H104.436C104.436 56.678 104.368 56.962 104.232 57.214C104.1 57.462 103.918 57.66 103.686 57.808C103.454 57.952 103.192 58.024 102.9 58.024ZM103.02 57.484C103.224 57.484 103.406 57.436 103.566 57.34C103.726 57.24 103.852 57.106 103.944 56.938C104.036 56.766 104.082 56.574 104.082 56.362C104.082 56.146 104.036 55.954 103.944 55.786C103.852 55.614 103.726 55.48 103.566 55.384C103.406 55.284 103.224 55.234 103.02 55.234C102.82 55.234 102.638 55.284 102.474 55.384C102.314 55.48 102.186 55.614 102.09 55.786C101.998 55.954 101.952 56.146 101.952 56.362C101.952 56.574 101.998 56.766 102.09 56.938C102.186 57.106 102.314 57.24 102.474 57.34C102.638 57.436 102.82 57.484 103.02 57.484ZM104.364 58.006C104.276 58.006 104.202 57.978 104.142 57.922C104.086 57.862 104.058 57.788 104.058 57.7V56.782L104.172 56.146L104.67 56.362V57.7C104.67 57.788 104.64 57.862 104.58 57.922C104.524 57.978 104.452 58.006 104.364 58.006ZM107.351 55.552C107.239 55.552 107.141 55.512 107.057 55.432C106.977 55.348 106.937 55.25 106.937 55.138C106.937 55.022 106.977 54.924 107.057 54.844C107.141 54.76 107.239 54.718 107.351 54.718C107.467 54.718 107.565 54.76 107.645 54.844C107.725 54.924 107.765 55.022 107.765 55.138C107.765 55.25 107.725 55.348 107.645 55.432C107.565 55.512 107.467 55.552 107.351 55.552ZM107.417 58.096C107.305 58.096 107.207 58.056 107.123 57.976C107.043 57.892 107.003 57.794 107.003 57.682C107.003 57.566 107.043 57.468 107.123 57.388C107.207 57.304 107.305 57.262 107.417 57.262C107.533 57.262 107.631 57.304 107.711 57.388C107.791 57.468 107.831 57.566 107.831 57.682C107.831 57.794 107.791 57.892 107.711 57.976C107.631 58.056 107.533 58.096 107.417 58.096ZM108.433 59.404C108.345 59.404 108.271 59.374 108.211 59.314C108.155 59.254 108.127 59.18 108.127 59.092C108.127 59.04 108.139 58.99 108.163 58.942C108.367 58.518 108.523 58.088 108.631 57.652C108.743 57.216 108.799 56.786 108.799 56.362C108.799 55.502 108.589 54.646 108.169 53.794C108.145 53.754 108.131 53.702 108.127 53.638C108.127 53.55 108.155 53.476 108.211 53.416C108.271 53.352 108.345 53.32 108.433 53.32C108.565 53.32 108.661 53.39 108.721 53.53C108.949 53.994 109.119 54.462 109.231 54.934C109.343 55.406 109.399 55.88 109.399 56.356C109.399 56.832 109.341 57.306 109.225 57.778C109.113 58.25 108.945 58.724 108.721 59.2C108.685 59.276 108.643 59.328 108.595 59.356C108.551 59.388 108.497 59.404 108.433 59.404ZM110.325 58.096C110.213 58.096 110.115 58.056 110.031 57.976C109.951 57.892 109.911 57.794 109.911 57.682C109.911 57.566 109.951 57.468 110.031 57.388C110.115 57.304 110.213 57.262 110.325 57.262C110.441 57.262 110.539 57.304 110.619 57.388C110.699 57.468 110.739 57.566 110.739 57.682C110.739 57.794 110.699 57.892 110.619 57.976C110.539 58.056 110.441 58.096 110.325 58.096Z" fill="black"/>
<path d="M137.723 57C137.683 57 137.648 56.985 137.618 56.955C137.588 56.925 137.573 56.889 137.573 56.847V55.017L137.354 55.11C137.32 55.124 137.288 55.131 137.258 55.131C137.214 55.131 137.177 55.117 137.147 55.089C137.119 55.061 137.105 55.025 137.105 54.981C137.105 54.949 137.113 54.92 137.129 54.894C137.145 54.868 137.17 54.849 137.204 54.837L137.672 54.669C137.682 54.665 137.692 54.662 137.702 54.66C137.712 54.658 137.721 54.657 137.729 54.657C137.775 54.657 137.811 54.672 137.837 54.702C137.865 54.73 137.879 54.767 137.879 54.813V56.847C137.879 56.889 137.864 56.925 137.834 56.955C137.804 56.985 137.767 57 137.723 57ZM138.526 57C138.482 57 138.445 56.985 138.415 56.955C138.387 56.925 138.373 56.889 138.373 56.847C138.373 56.803 138.387 56.767 138.415 56.739L139.267 55.743C139.327 55.673 139.373 55.607 139.405 55.545C139.439 55.483 139.456 55.424 139.456 55.368C139.456 55.28 139.441 55.204 139.411 55.14C139.381 55.076 139.338 55.027 139.282 54.993C139.226 54.957 139.159 54.939 139.081 54.939C139.005 54.939 138.936 54.959 138.874 54.999C138.814 55.037 138.766 55.089 138.73 55.155C138.696 55.219 138.679 55.29 138.679 55.368C138.679 55.408 138.664 55.443 138.634 55.473C138.606 55.503 138.57 55.518 138.526 55.518C138.484 55.518 138.448 55.503 138.418 55.473C138.388 55.443 138.373 55.408 138.373 55.368C138.373 55.232 138.404 55.111 138.466 55.005C138.528 54.897 138.612 54.812 138.718 54.75C138.826 54.688 138.947 54.657 139.081 54.657C139.217 54.657 139.335 54.686 139.435 54.744C139.535 54.802 139.612 54.884 139.666 54.99C139.722 55.096 139.75 55.222 139.75 55.368C139.75 55.432 139.736 55.497 139.708 55.563C139.682 55.629 139.648 55.692 139.606 55.752C139.566 55.812 139.525 55.866 139.483 55.914L138.796 56.694H139.636C139.68 56.694 139.717 56.71 139.747 56.742C139.777 56.772 139.792 56.807 139.792 56.847C139.792 56.889 139.777 56.925 139.747 56.955C139.717 56.985 139.68 57 139.636 57H138.526ZM140.217 55.776C140.161 55.776 140.112 55.756 140.07 55.716C140.03 55.674 140.01 55.625 140.01 55.569C140.01 55.511 140.03 55.462 140.07 55.422C140.112 55.38 140.161 55.359 140.217 55.359C140.275 55.359 140.324 55.38 140.364 55.422C140.404 55.462 140.424 55.511 140.424 55.569C140.424 55.625 140.404 55.674 140.364 55.716C140.324 55.756 140.275 55.776 140.217 55.776ZM140.25 57.048C140.194 57.048 140.145 57.028 140.103 56.988C140.063 56.946 140.043 56.897 140.043 56.841C140.043 56.783 140.063 56.734 140.103 56.694C140.145 56.652 140.194 56.631 140.25 56.631C140.308 56.631 140.357 56.652 140.397 56.694C140.437 56.734 140.457 56.783 140.457 56.841C140.457 56.897 140.437 56.946 140.397 56.988C140.357 57.028 140.308 57.048 140.25 57.048ZM141.394 57C141.242 57 141.112 56.954 141.004 56.862C140.898 56.768 140.817 56.634 140.761 56.46C140.705 56.284 140.677 56.073 140.677 55.827C140.677 55.581 140.705 55.371 140.761 55.197C140.817 55.021 140.898 54.887 141.004 54.795C141.112 54.701 141.242 54.654 141.394 54.654C141.546 54.654 141.675 54.702 141.781 54.798C141.889 54.892 141.971 55.027 142.027 55.203C142.083 55.377 142.111 55.585 142.111 55.827C142.111 56.069 142.083 56.278 142.027 56.454C141.971 56.628 141.889 56.763 141.781 56.859C141.675 56.953 141.546 57 141.394 57ZM141.394 56.688C141.486 56.688 141.562 56.651 141.622 56.577C141.682 56.501 141.727 56.398 141.757 56.268C141.787 56.138 141.802 55.991 141.802 55.827C141.802 55.663 141.787 55.516 141.757 55.386C141.727 55.256 141.682 55.153 141.622 55.077C141.562 55.001 141.486 54.963 141.394 54.963C141.302 54.963 141.226 55.001 141.166 55.077C141.106 55.151 141.061 55.253 141.031 55.383C141.001 55.513 140.986 55.661 140.986 55.827C140.986 55.993 141.001 56.141 141.031 56.271C141.061 56.401 141.106 56.503 141.166 56.577C141.228 56.651 141.304 56.688 141.394 56.688ZM143.129 57C142.977 57 142.847 56.954 142.739 56.862C142.633 56.768 142.552 56.634 142.496 56.46C142.44 56.284 142.412 56.073 142.412 55.827C142.412 55.581 142.44 55.371 142.496 55.197C142.552 55.021 142.633 54.887 142.739 54.795C142.847 54.701 142.977 54.654 143.129 54.654C143.281 54.654 143.41 54.702 143.516 54.798C143.624 54.892 143.706 55.027 143.762 55.203C143.818 55.377 143.846 55.585 143.846 55.827C143.846 56.069 143.818 56.278 143.762 56.454C143.706 56.628 143.624 56.763 143.516 56.859C143.41 56.953 143.281 57 143.129 57ZM143.129 56.688C143.221 56.688 143.297 56.651 143.357 56.577C143.417 56.501 143.462 56.398 143.492 56.268C143.522 56.138 143.537 55.991 143.537 55.827C143.537 55.663 143.522 55.516 143.492 55.386C143.462 55.256 143.417 55.153 143.357 55.077C143.297 55.001 143.221 54.963 143.129 54.963C143.037 54.963 142.961 55.001 142.901 55.077C142.841 55.151 142.796 55.253 142.766 55.383C142.736 55.513 142.721 55.661 142.721 55.827C142.721 55.993 142.736 56.141 142.766 56.271C142.796 56.401 142.841 56.503 142.901 56.577C142.963 56.651 143.039 56.688 143.129 56.688ZM145.298 57.702C145.254 57.702 145.217 57.687 145.187 57.657C145.159 57.629 145.145 57.593 145.145 57.549V56.181C145.147 56.023 145.184 55.881 145.256 55.755C145.328 55.629 145.426 55.53 145.55 55.458C145.674 55.384 145.814 55.347 145.97 55.347C146.128 55.347 146.269 55.384 146.393 55.458C146.517 55.53 146.615 55.629 146.687 55.755C146.761 55.881 146.798 56.023 146.798 56.181C146.798 56.339 146.764 56.481 146.696 56.607C146.63 56.731 146.539 56.83 146.423 56.904C146.307 56.976 146.176 57.012 146.03 57.012C145.912 57.012 145.803 56.988 145.703 56.94C145.605 56.89 145.521 56.823 145.451 56.739V57.549C145.451 57.593 145.437 57.629 145.409 57.657C145.381 57.687 145.344 57.702 145.298 57.702ZM145.97 56.742C146.072 56.742 146.163 56.718 146.243 56.67C146.323 56.62 146.386 56.553 146.432 56.469C146.48 56.383 146.504 56.287 146.504 56.181C146.504 56.073 146.48 55.977 146.432 55.893C146.386 55.807 146.323 55.74 146.243 55.692C146.163 55.642 146.072 55.617 145.97 55.617C145.87 55.617 145.779 55.642 145.697 55.692C145.617 55.74 145.554 55.807 145.508 55.893C145.462 55.977 145.439 56.073 145.439 56.181C145.439 56.287 145.462 56.383 145.508 56.469C145.554 56.553 145.617 56.62 145.697 56.67C145.779 56.718 145.87 56.742 145.97 56.742ZM149.408 57.003C149.364 57.003 149.327 56.989 149.297 56.961C149.269 56.931 149.255 56.894 149.255 56.85V55.992C149.255 55.866 149.224 55.773 149.162 55.713C149.1 55.651 149.019 55.62 148.919 55.62C148.815 55.62 148.729 55.656 148.661 55.728C148.595 55.8 148.562 55.892 148.562 56.004H148.313C148.313 55.874 148.341 55.76 148.397 55.662C148.453 55.562 148.531 55.484 148.631 55.428C148.733 55.372 148.849 55.344 148.979 55.344C149.093 55.344 149.194 55.369 149.282 55.419C149.37 55.469 149.438 55.543 149.486 55.641C149.536 55.737 149.561 55.854 149.561 55.992V56.85C149.561 56.894 149.547 56.931 149.519 56.961C149.491 56.989 149.454 57.003 149.408 57.003ZM147.407 57.003C147.363 57.003 147.326 56.989 147.296 56.961C147.268 56.931 147.254 56.894 147.254 56.85V55.515C147.254 55.469 147.268 55.432 147.296 55.404C147.326 55.376 147.363 55.362 147.407 55.362C147.453 55.362 147.49 55.376 147.518 55.404C147.546 55.432 147.56 55.469 147.56 55.515V56.85C147.56 56.894 147.546 56.931 147.518 56.961C147.49 56.989 147.453 57.003 147.407 57.003ZM148.409 57.003C148.365 57.003 148.328 56.989 148.298 56.961C148.27 56.931 148.256 56.894 148.256 56.85V55.992C148.256 55.866 148.225 55.773 148.163 55.713C148.101 55.651 148.02 55.62 147.92 55.62C147.816 55.62 147.73 55.656 147.662 55.728C147.594 55.8 147.56 55.892 147.56 56.004H147.371C147.371 55.874 147.397 55.76 147.449 55.662C147.501 55.562 147.573 55.484 147.665 55.428C147.757 55.372 147.862 55.344 147.98 55.344C148.094 55.344 148.195 55.369 148.283 55.419C148.371 55.469 148.439 55.543 148.487 55.641C148.537 55.737 148.562 55.854 148.562 55.992V56.85C148.562 56.894 148.548 56.931 148.52 56.961C148.492 56.989 148.455 57.003 148.409 57.003Z" fill="#F5F5F5"/>
<defs>
<filter id="filter0_d_1902_2" x="0" y="0" width="166" height="196" filterUnits="userSpaceOnUse" color-interpolation-filters="sRGB">
<feFlood flood-opacity="0" result="BackgroundImageFix"/>
<feColorMatrix in="SourceAlpha" type="matrix" values="0 0 0 0 0 0 0 0 0 0 0 0 0 0 0 0 0 0 127 0" result="hardAlpha"/>
<feOffset dy="4"/>
<feGaussianBlur stdDeviation="2"/>
<feComposite in2="hardAlpha" operator="out"/>
<feColorMatrix type="matrix" values="0 0 0 0 0 0 0 0 0 0 0 0 0 0 0 0 0 0 0.25 0"/>
<feBlend mode="normal" in2="BackgroundImageFix" result="effect1_dropShadow_1902_2"/>
<feBlend mode="normal" in="SourceGraphic" in2="effect1_dropShadow_1902_2" result="shape"/>
</filter>
</defs>
</svg>
